<svg height="448pt" viewBox="0 0 448 448" width="448pt" xmlns="http://www.w3.org/2000/svg"><path d="m0 32h112v320h-112zm0 0"/><path d="m0 368h112v80h-112zm0 0"/><path d="m32 0h48v16h-48zm0 0"/><path d="m200 0h48v16h-48zm0 0"/><path d="m168 272h112v80h-112zm0 0"/><path d="m168 368h112v80h-112zm0 0"/><path d="m168 32h112v224h-112zm0 0"/><path d="m368 0h48v16h-48zm0 0"/><path d="m336 272h112v80h-112zm0 0"/><path d="m336 368h112v80h-112zm0 0"/><path d="m336 176h112v80h-112zm0 0"/><path d="m336 32h112v128h-112zm0 0"/></svg>