<svg height="464pt" viewBox="-8 0 464 464" width="464pt" xmlns="http://www.w3.org/2000/svg"><path d="m224 344c2.371094 0 4.621094 1.050781 6.144531 2.875 1.519531 1.820312 2.152344 4.222656 1.726563 6.558594l-8.839844 48.605468 57.089844-88.222656-55.242188 6.136719c-2.859375.316406-5.667968-.929687-7.355468-3.257813-1.6875-2.332031-1.996094-5.386718-.804688-8.007812l34.855469-76.6875h-53.597657l-34.914062 118.71875 60.058594-6.671875c.292968-.03125.585937-.046875.878906-.046875zm0 0"/><path d="m0 144h448v32h-448zm0 0"/><path d="m432 464v-272h-416v272zm-287.671875-106.257812 40-136c1-3.402344 4.125-5.742188 7.671875-5.742188h72c2.71875 0 5.253906 1.382812 6.726562 3.671875 1.46875 2.285156 1.679688 5.164063.554688 7.640625l-34.167969 75.199219 58.007813-6.449219c3.066406-.335938 6.058594 1.125 7.679687 3.75 1.621094 2.628906 1.585938 5.953125-.089843 8.546875l-88 136c-1.476563 2.273437-4 3.640625-6.710938 3.640625-1.007812.003906-2.007812-.1875-2.945312-.558594-3.546876-1.40625-5.609376-5.121094-4.925782-8.875l14.078125-77.429687-61.328125 6.816406c-2.660156.292969-5.289062-.765625-7.007812-2.816406s-2.296875-4.824219-1.542969-7.394531zm0 0"/><path d="m48 112h48v16h-48zm0 0"/><path d="m352 112h48v16h-48zm0 0"/><path d="m344 48h24v24c0 4.417969 3.582031 8 8 8s8-3.582031 8-8v-24h24c4.417969 0 8-3.582031 8-8s-3.582031-8-8-8h-24v-24c0-4.417969-3.582031-8-8-8s-8 3.582031-8 8v24h-24c-4.417969 0-8 3.582031-8 8s3.582031 8 8 8zm0 0"/><path d="m40 48h64c4.417969 0 8-3.582031 8-8s-3.582031-8-8-8h-64c-4.417969 0-8 3.582031-8 8s3.582031 8 8 8zm0 0"/></svg>