<svg height="435pt" viewBox="-25 0 435 435.336" width="435pt" xmlns="http://www.w3.org/2000/svg"><path d="m157.167969 83.335938h70l-35-83.335938zm0 0"/><path d="m130.289062 147.335938h123.757813l-20.160156-48h-83.4375zm0 0"/><path d="m360.167969 387.335938h-336c-13.253907 0-24 10.746093-24 24 0 13.253906 10.746093 24 24 24h336c13.253906 0 24-10.746094 24-24 0-13.253907-10.746094-24-24-24zm0 0"/><path d="m69.808594 291.335938h244.71875l-20.160156-48h-204.398438zm0 0"/><path d="m321.246094 307.335938h-258.15625l-26.882813 64h311.921875zm0 0"/><path d="m123.566406 163.335938-26.878906 64h190.960938l-26.878907-64zm0 0"/></svg>