<svg height="432pt" viewBox="0 -32 432 432" width="432pt" xmlns="http://www.w3.org/2000/svg"><path d="m0 368h208v-112h-208zm168-96c0-4.417969 3.582031-8 8-8s8 3.582031 8 8v80c0 4.417969-3.582031 8-8 8s-8-3.582031-8-8zm-48 0c0-4.417969 3.582031-8 8-8s8 3.582031 8 8v80c0 4.417969-3.582031 8-8 8s-8-3.582031-8-8zm-48 0c0-4.417969 3.582031-8 8-8s8 3.582031 8 8v80c0 4.417969-3.582031 8-8 8s-8-3.582031-8-8zm-48 0c0-4.417969 3.582031-8 8-8s8 3.582031 8 8v80c0 4.417969-3.582031 8-8 8s-8-3.582031-8-8zm0 0"/><path d="m208 128h-208v112h208zm-168 96c0 4.417969-3.582031 8-8 8s-8-3.582031-8-8v-80c0-4.417969 3.582031-8 8-8s8 3.582031 8 8zm48 0c0 4.417969-3.582031 8-8 8s-8-3.582031-8-8v-80c0-4.417969 3.582031-8 8-8s8 3.582031 8 8zm48 0c0 4.417969-3.582031 8-8 8s-8-3.582031-8-8v-80c0-4.417969 3.582031-8 8-8s8 3.582031 8 8zm48 0c0 4.417969-3.582031 8-8 8s-8-3.582031-8-8v-80c0-4.417969 3.582031-8 8-8s8 3.582031 8 8zm0 0"/><path d="m432 128h-208v112h208zm-168 96c0 4.417969-3.582031 8-8 8s-8-3.582031-8-8v-80c0-4.417969 3.582031-8 8-8s8 3.582031 8 8zm48 0c0 4.417969-3.582031 8-8 8s-8-3.582031-8-8v-80c0-4.417969 3.582031-8 8-8s8 3.582031 8 8zm48 0c0 4.417969-3.582031 8-8 8s-8-3.582031-8-8v-80c0-4.417969 3.582031-8 8-8s8 3.582031 8 8zm48 0c0 4.417969-3.582031 8-8 8s-8-3.582031-8-8v-80c0-4.417969 3.582031-8 8-8s8 3.582031 8 8zm0 0"/><path d="m0 112h208v-112h-208zm168-96c0-4.417969 3.582031-8 8-8s8 3.582031 8 8v80c0 4.417969-3.582031 8-8 8s-8-3.582031-8-8zm-48 0c0-4.417969 3.582031-8 8-8s8 3.582031 8 8v80c0 4.417969-3.582031 8-8 8s-8-3.582031-8-8zm-48 0c0-4.417969 3.582031-8 8-8s8 3.582031 8 8v80c0 4.417969-3.582031 8-8 8s-8-3.582031-8-8zm-48 0c0-4.417969 3.582031-8 8-8s8 3.582031 8 8v80c0 4.417969-3.582031 8-8 8s-8-3.582031-8-8zm0 0"/><path d="m224 368h208v-112h-208zm168-96c0-4.417969 3.582031-8 8-8s8 3.582031 8 8v80c0 4.417969-3.582031 8-8 8s-8-3.582031-8-8zm-48 0c0-4.417969 3.582031-8 8-8s8 3.582031 8 8v80c0 4.417969-3.582031 8-8 8s-8-3.582031-8-8zm-48 0c0-4.417969 3.582031-8 8-8s8 3.582031 8 8v80c0 4.417969-3.582031 8-8 8s-8-3.582031-8-8zm-48 0c0-4.417969 3.582031-8 8-8s8 3.582031 8 8v80c0 4.417969-3.582031 8-8 8s-8-3.582031-8-8zm0 0"/></svg>