<svg height="445pt" viewBox="-38 0 445 445.80401" width="445pt" xmlns="http://www.w3.org/2000/svg"><path d="m288.402344 79.929688h-76.3125c-.167969.292968-.382813.550781-.558594.839843-1.179688 1.941407-2.570312 3.75-4.144531 5.390625-.128907.136719-.242188.28125-.367188.414063-.632812.625-1.320312 1.1875-2 1.761719-.488281.40625-.953125.800781-1.464843 1.207031-.511719.410156-1.257813.871093-1.914063 1.289062-.65625.414063-1.300781.800781-1.984375 1.183594-.679688.382813-1.222656.632813-1.855469.929687-.796875.367188-1.597656.6875-2.398437.992188-.59375.214844-1.167969.429688-1.777344.605469-.976562.285156-1.964844.519531-2.96875.703125-.503906.105468-1.007812.242187-1.519531.3125-1.566407.238281-3.148438.363281-4.734375.371094h104zm0 0"/><path d="m256.402344 111.929688h-144v24c0 39.761718 32.234375 72 72 72s72-32.238282 72-72zm0 0"/><path d="m160.402344 3.433594c-29.371094 8.230468-52.351563 31.144531-60.664063 60.496094h52.664063c.023437-7.710938 2.871094-15.144532 8-20.898438zm0 0"/><path d="m178.234375 95.265625c-1.03125-.210937-2.054687-.433594-3.054687-.730469-.554688-.167968-1.097657-.367187-1.601563-.566406-.914063-.328125-1.800781-.6875-2.671875-1.097656-.535156-.246094-1.054688-.503906-1.601562-.800782-.863282-.460937-1.679688-.964843-2.488282-1.496093-.460937-.308594-.933594-.597657-1.375-.925781-.867187-.648438-1.699218-1.34375-2.496094-2.082032-.320312-.285156-.664062-.550781-.96875-.847656-1.082031-1.0625-2.089843-2.203125-3.007812-3.414062-.152344-.199219-.269531-.425782-.414062-.625-.664063-.890626-1.277344-1.816407-1.839844-2.777344h-76.3125v16h104c-1.574219-.007813-3.148438-.128906-4.703125-.367188-.496094-.046875-.976563-.175781-1.464844-.269531zm0 0"/><path d="m269.066406 63.929688c-8.308594-29.355469-31.289062-52.269532-60.664062-60.496094v39.582031c5.128906 5.761719 7.976562 13.199219 8 20.914063zm0 0"/><path d="m192.402344.328125h-.3125c-2.335938-.207031-4.65625-.3046875-6.984375-.328125h-1.328125c-2.351563 0-4.703125.113281-7.078125.328125h-.296875v32.617187c5.246094-1.355468 10.753906-1.355468 16 0zm0 0"/><path d="m168.402344 63.929688c-.019532 1.742187.289062 3.476562.902344 5.109374 2.148437 6.445313 8.144531 10.8125 14.9375 10.882813 6.789062.070313 12.875-4.179687 15.152343-10.578125.671875-1.726562 1.015625-3.5625 1.007813-5.414062.003906-6.632813-4.113282-12.566407-10.328125-14.882813-5.570313-2.046875-11.8125-.910156-16.304688 2.96875-3.433593 3.003906-5.394531 7.351563-5.367187 11.914063zm0 0"/><path d="m368.402344 345.433594c-.074219-61.472656-49.015625-111.742188-110.464844-113.464844l-68.160156 61.878906c-3.167969 2.878906-8.039063 2.757813-11.054688-.28125l-61.175781-61.636718h-3.640625c-62.664062.050781-113.453125 50.835937-113.503906 113.503906v64.726562l34.742187 11.582032c96.917969 32.082031 201.59375 32.082031 298.511719 0l34.746094-11.582032zm0 0"/></svg>