<svg height="448pt" viewBox="0 0 448 448" width="448pt" xmlns="http://www.w3.org/2000/svg"><path d="m288 208c0-2.347656-.125-4.695312-.375-7.03125l-37.226562 37.199219-49.496094-7.105469-7.070313-49.460938 37.199219-37.195312c-2.335938-.257812-4.683594-.394531-7.03125-.40625-26.527344-.023438-50.316406 16.335938-59.789062 41.117188-9.472657 24.78125-2.660157 52.835937 17.117187 70.515624l2.671875 2.398438v79.128906c15.394531 5.40625 31.71875 7.652344 48 6.609375v-71.921875l6.230469-1.40625c29.039062-6.792968 49.625-32.621094 49.769531-62.441406zm0 0"/><path d="m224 104c-55.167969-.003906-103.226562 37.605469-116.488281 91.15625-13.261719 53.546875 11.695312 109.238281 60.488281 134.980469v-65.066407c-23.210938-22.742187-30.347656-57.269531-18.058594-87.351562 12.289063-30.082031 41.5625-49.734375 74.058594-49.71875 8.707031-.035156 17.359375 1.382812 25.601562 4.191406l12.109376 4.160156-50.902344 50.847657 4.253906 29.710937 29.714844 4.257813 50.863281-50.863281 4.167969 12.109374c2.808594 8.238282 4.226562 16.882813 4.191406 25.585938-.1875 34.882812-22.785156 65.691406-56 76.351562v57.25c60.417969-12.269531 101.707031-68.324218 95.511719-129.660156-6.195313-61.339844-57.863281-108.003906-119.511719-107.941406zm0 0"/><path d="m322.695312 379.304688 31.382813 31.382812 56.609375-56.609375-31.382812-31.382813 3.199218-5.34375c8.761719-14.78125 15.390625-30.722656 19.6875-47.359374l1.535156-5.992188h44.273438v-80h-44.273438l-1.550781-5.992188c-4.296875-16.636718-10.921875-32.582031-19.6875-47.359374l-3.199219-5.34375 31.382813-31.382813-56.59375-56.609375-31.382813 31.382812-5.34375-3.199218c-14.777343-8.765625-30.722656-15.390625-47.359374-19.6875l-5.992188-1.535156v-44.273438h-80v44.273438l-5.992188 1.550781c-16.636718 4.296875-32.582031 10.921875-47.359374 19.6875l-5.34375 3.199219-31.382813-31.398438-56.609375 56.609375 31.382812 31.382813-3.199218 5.34375c-8.765625 14.777343-15.390625 30.722656-19.6875 47.359374l-1.535156 5.992188h-44.273438v80h44.273438l1.550781 5.992188c4.296875 16.636718 10.925781 32.578124 19.6875 47.359374l3.199219 5.34375-31.398438 31.382813 56.609375 56.609375 31.382813-31.382812 5.34375 3.199218c14.777343 8.765625 30.722656 15.390625 47.359374 19.6875l5.992188 1.550782v44.257812h80v-44.273438l5.992188-1.550781c16.636718-4.296875 32.582031-10.921875 47.359374-19.6875zm-74.695312-21.535157v.359375l-7.03125.847656-8.96875 1.128907v-.34375c-2.640625.148437-5.296875.238281-8 .238281-13.5625.007812-27.046875-2.03125-40-6.046875v.542969l-11-4.441406h-.046875l-4.953125-2.054688v-.183594c-61.265625-27.703125-93.09375-96.019531-74.882812-160.75 18.207031-64.726562 80.980468-106.429687 147.707031-98.128906 66.722656 8.300781 117.367187 64.113281 119.160156 131.328125 1.796875 67.214844-45.796875 125.652344-111.984375 137.503906zm0 0"/></svg>