<svg height="448pt" viewBox="-81 0 448 448.00007" width="448pt" xmlns="http://www.w3.org/2000/svg"><path d="m163.65625 172c1.457031-2.542969 2.417969-5.339844 2.832031-8.238281 0-.082031.074219-.136719.089844-.21875.179687-1.171875.269531-2.355469.28125-3.542969-.023437-9.875-6.101563-18.722656-15.3125-22.28125-.964844-.351562-1.945313-.648438-2.945313-.878906-4.726562-1.269532-9.734374-.988282-14.289062.800781-9.28125 3.535156-15.425781 12.425781-15.453125 22.359375.011719 1.179688.109375 2.359375.285156 3.527344 0 .082031.082031.144531.097657.234375.40625 2.898437 1.363281 5.695312 2.816406 8.238281 1.464844 2.535156 3.402344 4.765625 5.710937 6.566406.0625.050782.082031.128906.136719.175782.960938.742187 1.96875 1.425781 3.015625 2.042968 7.398437 4.289063 16.527344 4.289063 23.929687 0 1.007813-.613281 1.984376-1.285156 2.917969-2.007812.0625-.050782.082031-.128906.144531-.175782 2.203126-1.738281 4.0625-3.863281 5.496094-6.273437.078125-.136719.167969-.222656.246094-.328125zm0 0"/><path d="m151.523438 199.03125c-.761719.167969-1.53125.257812-2.289063.386719-.527344.085937-1.058594.199219-1.601563.261719-1.371093.164062-2.753906.257812-4.136718.28125-.214844 0-.429688 0-.65625 0-.222656 0-.445313 0-.679688-.050782-1.367187-.015625-2.734375-.109375-4.09375-.269531-.570312-.074219-1.121094-.183594-1.6875-.28125-.738281-.121094-1.472656-.207031-2.203125-.367187l-14.820312 249.007812h47.007812zm0 0"/><path d="m149.363281 0h-13.007812c-2.253907-.0078125-4.40625.933594-5.929688 2.589844-1.523437 1.660156-2.273437 3.886718-2.070312 6.128906l10.085937 111.53125c2.925782-.332031 5.875-.332031 8.800782 0l10.09375-111.53125c.203124-2.242188-.546876-4.46875-2.070313-6.128906-1.523437-1.65625-3.675781-2.5976565-5.929687-2.589844zm0 0"/><path d="m106.242188 176.078125-101.601563 47.027344c-2.039063.941406-3.589844 2.699219-4.265625 4.84375-.679688 2.144531-.4257812 4.472656.699219 6.417969l6.503906 11.265624c1.113281 1.953126 3.003906 3.339844 5.199219 3.816407 2.199218.511719 4.507812.042969 6.335937-1.28125l91.519531-64.488281c-.871093-1.167969-1.671874-2.390626-2.398437-3.65625-.082031-.136719-.144531-.289063-.226563-.429688-.636718-1.152344-1.246093-2.320312-1.765624-3.515625zm0 0"/><path d="m272.96875 249.449219c2.199219-.476563 4.089844-1.863281 5.199219-3.816407l6.503906-11.265624c1.125-1.945313 1.378906-4.273438.703125-6.417969-.679688-2.144531-2.230469-3.902344-4.269531-4.84375l-101.601563-47.027344c-.539062 1.222656-1.136718 2.410156-1.796875 3.570313-.066406.113281-.105469.238281-.175781.351562-.730469 1.273438-1.53125 2.5-2.402344 3.679688l91.550782 64.488281c1.816406 1.3125 4.105468 1.777343 6.289062 1.28125zm0 0"/></svg>