<svg height="448pt" viewBox="0 -2 448 448" width="448pt" xmlns="http://www.w3.org/2000/svg"><path d="m88 299.054688h16v16h-16zm0 0"/><path d="m136 443.054688v-442.75l-136 71.550781v371.199219zm-64-288h48v48h-48zm0 64h48v48h-48zm0 64h48v48h-48zm0 64h48v48h-48zm-56-192h48v48h-48zm0 64h48v48h-48zm0 64h48v48h-48zm0 64h48v48h-48zm0 0"/><path d="m88 171.054688h16v16h-16zm0 0"/><path d="m88 235.054688h16v16h-16zm0 0"/><path d="m32 171.054688h16v16h-16zm0 0"/><path d="m32 363.054688h16v16h-16zm0 0"/><path d="m32 235.054688h16v16h-16zm0 0"/><path d="m32 299.054688h16v16h-16zm0 0"/><path d="m88 363.054688h16v16h-16zm0 0"/><path d="m248 363.054688h16v16h-16zm0 0"/><path d="m248 299.054688h16v16h-16zm0 0"/><path d="m184 171.054688h16v16h-16zm0 0"/><path d="m248 235.054688h16v16h-16zm0 0"/><path d="m296 443.054688v-443.054688l-144 72v371.054688zm-64-288h48v48h-48zm0 64h48v48h-48zm0 64h48v48h-48zm0 64h48v48h-48zm-64-192h48v48h-48zm0 64h48v48h-48zm0 64h48v48h-48zm0 64h48v48h-48zm0 0"/><path d="m184 363.054688h16v16h-16zm0 0"/><path d="m184 235.054688h16v16h-16zm0 0"/><path d="m184 299.054688h16v16h-16zm0 0"/><path d="m248 171.054688h16v16h-16zm0 0"/><path d="m400 363.054688h16v16h-16zm0 0"/><path d="m344 299.054688h16v16h-16zm0 0"/><path d="m400 171.054688h16v16h-16zm0 0"/><path d="m344 235.054688h16v16h-16zm0 0"/><path d="m344 171.054688h16v16h-16zm0 0"/><path d="m400 299.054688h16v16h-16zm0 0"/><path d="m312 71.855469v371.199219h136v-442.75zm64 323.199219h-48v-48h48zm0-64h-48v-48h48zm0-64h-48v-48h48zm0-64h-48v-48h48zm56 192h-48v-48h48zm0-64h-48v-48h48zm0-64h-48v-48h48zm0-64h-48v-48h48zm0 0"/><path d="m400 235.054688h16v16h-16zm0 0"/><path d="m344 363.054688h16v16h-16zm0 0"/></svg>