<svg height="469pt" viewBox="-10 0 469 469.55769" width="469pt" xmlns="http://www.w3.org/2000/svg"><path d="m40.277344 373.558594h48v32h-48zm0 0"/><path d="m192.277344 373.558594h48v32h-48zm0 0"/><path d="m352.277344 373.558594h48v32h-48zm0 0"/><path d="m216.765625 141.558594h-32.976563l-9.773437 156.328125 2.671875-.800781 48.886719-14.671876zm0 0"/><path d="m.277344 469.558594h448v-189.25l-149.703125 44.914062c-2.421875.726563-5.042969.261719-7.070313-1.246094-2.03125-1.511718-3.226562-3.890624-3.226562-6.417968v-37.242188l-149.695313 44.90625c-2.421875.726563-5.046875.265625-7.078125-1.242187-2.03125-1.511719-3.226562-3.890625-3.226562-6.421875v-36.90625l-128 42.664062zm336-104c0-4.417969 3.582031-8 8-8h64c4.417968 0 8 3.582031 8 8v48c0 4.417968-3.582032 8-8 8h-64c-4.417969 0-8-3.582032-8-8zm-160 0c0-4.417969 3.582031-8 8-8h64c4.417968 0 8 3.582031 8 8v48c0 4.417968-3.582032 8-8 8h-64c-4.417969 0-8-3.582032-8-8zm-152 0c0-4.417969 3.582031-8 8-8h64c4.417968 0 8 3.582031 8 8v48c0 4.417968-3.582032 8-8 8h-64c-4.417969 0-8-3.582032-8-8zm0 0"/><path d="m47.789062 109.558594-11.582031 184.902344 54.984375-18.3125-10.425781-166.589844zm0 0"/><path d="m236.046875 97.558594c-8.578125-.503906-16.964844 2.652344-23.078125 8.6875-2.082031 2.007812-2.914062 4.984375-2.183594 7.78125.730469 2.796875 2.917969 4.980468 5.714844 5.710937 2.796875.734375 5.769531-.101562 7.777344-2.179687 3.261718-3.117188 7.761718-4.589844 12.234375-4 8.585937.5625 16.996093-2.605469 23.078125-8.6875 6.085937-6.085938 9.25-14.496094 8.6875-23.082032-.585938-4.472656.882812-8.96875 4-12.230468 2.082031-2.007813 2.914062-4.984375 2.183594-7.78125-.734376-2.796875-2.917969-4.980469-5.714844-5.714844-2.796875-.730469-5.769532.105469-7.777344 2.183594-6.035156 6.117187-9.191406 14.503906-8.691406 23.078125.695312 4.484375-.789063 9.027343-3.996094 12.234375-3.207031 3.207031-7.753906 4.691406-12.234375 4zm0 0"/><path d="m194.621094 95.902344c2.125 0 4.15625-.84375 5.65625-2.34375 3.261718-3.117188 7.761718-4.589844 12.234375-4 8.585937.5625 16.996093-2.605469 23.078125-8.6875 6.085937-6.085938 9.25-14.496094 8.6875-23.082032-.585938-4.472656.882812-8.96875 4-12.230468 2.082031-2.007813 2.914062-4.984375 2.183594-7.78125-.734376-2.796875-2.917969-4.980469-5.714844-5.714844-2.796875-.730469-5.769532.105469-7.777344 2.183594-6.035156 6.117187-9.191406 14.503906-8.691406 23.078125.695312 4.484375-.789063 9.027343-3.996094 12.234375-3.207031 3.207031-7.753906 4.691406-12.234375 4-8.578125-.503906-16.964844 2.652344-23.078125 8.6875-2.289062 2.289062-2.972656 5.726562-1.734375 8.71875 1.238281 2.988281 4.152344 4.9375 7.386719 4.9375zm0 0"/><path d="m100.046875 65.558594c-8.578125-.503906-16.964844 2.652344-23.078125 8.6875-2.082031 2.007812-2.914062 4.984375-2.183594 7.78125.730469 2.796875 2.917969 4.980468 5.714844 5.710937 2.796875.734375 5.769531-.101562 7.777344-2.179687 3.261718-3.117188 7.761718-4.589844 12.234375-4 8.585937.5625 16.996093-2.605469 23.078125-8.6875 6.085937-6.085938 9.25-14.496094 8.6875-23.082032-.585938-4.472656.882812-8.96875 4-12.230468 2.082031-2.007813 2.914062-4.984375 2.183594-7.78125-.734376-2.796875-2.917969-4.980469-5.714844-5.714844-2.796875-.730469-5.769532.105469-7.777344 2.183594-6.035156 6.117187-9.191406 14.503906-8.691406 23.078125.695312 4.484375-.789063 9.027343-3.996094 12.234375-3.207031 3.207031-7.753906 4.691406-12.234375 4zm0 0"/><path d="m58.621094 63.902344c2.125 0 4.15625-.84375 5.65625-2.34375 3.261718-3.117188 7.761718-4.589844 12.234375-4 8.585937.5625 16.996093-2.605469 23.078125-8.6875 6.085937-6.085938 9.25-14.496094 8.6875-23.082032-.585938-4.472656.882812-8.96875 4-12.230468 3.035156-3.140625 2.988281-8.128906-.097656-11.214844-3.085938-3.085938-8.074219-3.128906-11.210938-.097656-6.035156 6.117187-9.191406 14.503906-8.691406 23.078125.589844 4.472656-.878906 8.972656-4 12.234375-3.257813 3.117187-7.757813 4.589844-12.230469 4-8.578125-.503906-16.964844 2.652344-23.078125 8.6875-2.289062 2.289062-2.972656 5.726562-1.734375 8.71875 1.238281 2.988281 4.152344 4.9375 7.386719 4.9375zm0 0"/></svg>