<svg height="464pt" viewBox="0 -48 464 464" width="464pt" xmlns="http://www.w3.org/2000/svg"><path d="m384 304c0 4.417969-3.582031 8-8 8s-8-3.582031-8-8 3.582031-8 8-8 8 3.582031 8 8zm0 0"/><path d="m464 168h-48v76.136719c.230469.152343.433594.351562.664062.503906 2.207032 1.503906 4.328126 3.128906 6.351563 4.871094.257813.222656.488281.480469.746094.703125 1.78125 1.601562 3.476562 3.28125 5.109375 5.050781.242187.253906.511718.46875.746094.734375h34.382812zm0 0"/><path d="m432 304c-.019531-12.722656-4.363281-25.0625-12.320312-34.992188-2.1875-2.722656-4.621094-5.238281-7.265626-7.519531-2.621093-2.261719-5.445312-4.269531-8.4375-6.007812-4.355468-2.546875-9.046874-4.472657-13.9375-5.71875-4.589843-1.164063-9.304687-1.753907-14.039062-1.761719-16.996094-.050781-33.085938 7.679688-43.664062 20.984375-7.964844 9.933594-12.316407 22.28125-12.335938 35.015625-.03125 9.816406 2.566406 19.464844 7.527344 27.9375 9.960937 17.339844 28.425781 28.042969 48.421875 28.0625 20 .015625 38.484375-10.652344 48.476562-27.976562 4.984375-8.496094 7.601563-18.171876 7.574219-28.023438zm-56 24c-13.253906 0-24-10.746094-24-24s10.746094-24 24-24 24 10.746094 24 24-10.746094 24-24 24zm0 0"/><path d="m447.199219 314.398438c-.375 2.738281-.910157 5.453124-1.597657 8.128906-.082031.3125-.203124.617187-.289062.929687-.425781 1.519531-.863281 3.039063-1.390625 4.527344h20.078125v-55.984375h-23.527344c.160156.328125.269532.679688.421875 1.007812.898438 1.871094 1.699219 3.777344 2.402344 5.71875.144531.378907.3125.738282.445313 1.113282.828124 2.324218 1.53125 4.691406 2.105468 7.089844.160156.621093.273438 1.253906.410156 1.878906.40625 1.863281.734376 3.734375.988282 5.597656.097656.707031.203125 1.402344.273437 2.113281.292969 2.484375.453125 4.980469.480469 7.480469-.019531 2.828125-.203125 5.65625-.558594 8.464844-.074218.65625-.152344 1.304687-.242187 1.933594zm0 0"/><path d="m304.710938 294.441406c.257812-1.898437.585937-3.769531.992187-5.601562.136719-.632813.25-1.253906.402344-1.878906.589843-2.402344 1.285156-4.800782 2.109375-7.097657.128906-.359375.289062-.695312.425781-1.046875.734375-1.96875 1.597656-3.90625 2.472656-5.808594.152344-.320312.261719-.65625.414063-.976562h-183.527344v56h16c0-26.507812 21.492188-48 48-48s48 21.492188 48 48h68.121094c-.519532-1.464844-.953125-2.960938-1.378906-4.457031-.09375-.34375-.222657-.679688-.316407-1.03125-.6875-2.664063-1.222656-5.363281-1.601562-8.085938-.097657-.65625-.175781-1.3125-.25-1.96875-.359375-2.816406-.550781-5.648437-.574219-8.488281.015625-2.488281.160156-4.976562.441406-7.449219.070313-.710937.175782-1.40625.269532-2.109375zm0 0"/><path d="m334.472656 245.238281.710938-.503906c9.746094-6.765625 21.023437-10.992187 32.816406-12.292969v-104.441406h-40v88c0 4.417969-3.582031 8-8 8h-56v32h58.398438c3.605468-4.03125 7.65625-7.640625 12.074218-10.761719zm0 0"/><path d="m393.945312 234.238281c2.039063.523438 4.0625 1.128907 6.054688 1.832031v-204.070312h-16v200.449219c3.351562.371093 6.671875.96875 9.945312 1.789062zm0 0"/><path d="m224 328c0-17.671875-14.328125-32-32-32s-32 14.328125-32 32c-.019531 2.117188.1875 4.230469.617188 6.304688 2.976562 14.949218 16.082031 25.722656 31.320312 25.75 15.242188.03125 28.390625-10.695313 31.421875-25.628907.441406-2.113281.65625-4.269531.640625-6.425781zm-32 16c-8.835938 0-16-7.164062-16-16s7.164062-16 16-16 16 7.164062 16 16-7.164062 16-16 16zm0 0"/><path d="m128 192h16v-120c.039062-30.910156 25.089844-55.960938 56-56h216v-16h-216c-39.746094.0429688-71.957031 32.253906-72 72zm0 0"/><path d="m80 272v-248c0-4.417969-3.582031-8-8-8s-8 3.582031-8 8v328h-56c-4.417969 0-8 3.582031-8 8s3.582031 8 8 8h64c4.417969 0 8-3.582031 8-8v-72h32v-16zm0 0"/><path d="m128 208h64v48h-64zm0 0"/><path d="m227.070312 183.503906-33.597656-34.257812c-3.105468-3.078125-8.109375-3.089844-11.234375-.027344-3.121093 3.058594-3.207031 8.0625-.191406 11.230469l11.199219 11.4375-20.335938 20.113281h22.761719l8.800781-8.6875 11.199219 11.398438c1.992187 2.089843 4.953125 2.945312 7.75 2.238281 2.796875-.703125 4.996094-2.863281 5.757813-5.644531.761718-2.785157-.035157-5.761719-2.082032-7.792969zm0 0"/></svg>