<svg height="448pt" viewBox="0 -52 448 448" width="448pt" xmlns="http://www.w3.org/2000/svg"><path d="m184 178.75c.398438-.234375.800781-.386719 1.230469-.609375 2.226562-1.242187 4.503906-2.371094 6.832031-3.382813.699219-.304687 1.378906-.625 2.074219-.90625 2.847656-1.160156 5.757812-2.152343 8.71875-2.976562.496093-.136719 1-.222656 1.496093-.34375 2.550782-.648438 5.144532-1.160156 7.761719-1.550781.796875-.128907 1.664063-.25 2.503907-.351563 3.113281-.386718 6.246093-.59375 9.382812-.617187 3.132812.019531 6.265625.226562 9.375.617187.847656.101563 1.679688.222656 2.519531.351563 2.601563.386719 5.179688.898437 7.730469 1.542969.503906.128906 1.023438.214843 1.527344.359374 2.953125.820313 5.855468 1.808594 8.695312 2.960938.710938.289062 1.410156.617188 2.121094.929688 2.304688 1.007812 4.554688 2.125 6.757812 3.351562.417969.222656.867188.390625 1.273438.625 0 0 0-139.378906 0-139.691406-.257812-10.257813-4.445312-20.023438-11.695312-27.285156-11.210938-11.269532-28.039063-14.820313-42.84375-9.039063-14.808594 5.78125-24.78125 19.792969-25.390626 35.679687-.070312.40625-.070312 140.335938-.070312 140.335938zm0 0"/><path d="m424 296.011719h-136c-.601562.800781-1.304688 1.511719-1.9375 2.289062-.925781 1.152344-1.863281 2.289063-2.847656 3.375-1.167969 1.296875-2.398438 2.511719-3.640625 3.71875-1.039063 1.019531-2.070313 2.027344-3.199219 2.976563-1.3125 1.144531-2.6875 2.199218-4.0625 3.25-1.144531.863281-2.265625 1.742187-3.441406 2.542968-1.457032.992188-2.96875 1.871094-4.480469 2.761719-1.207031.703125-2.398437 1.445313-3.628906 2.085938-1.601563.800781-3.25 1.535156-4.90625 2.25-1.238281.542969-2.457031 1.125-3.71875 1.597656-1.777344.664063-3.601563 1.183594-5.425781 1.722656-1.214844.359375-2.398438.796875-3.640626 1.09375-2.054687.503907-4.160156.800781-6.269531 1.175781-1.046875.167969-2.074219.425782-3.136719.550782-6.421874.800781-12.921874.800781-19.34375 0-1.0625-.125-2.089843-.382813-3.144531-.550782-2.105469-.34375-4.207031-.671874-6.265625-1.175781-1.230468-.304687-2.398437-.726562-3.636718-1.085937-1.824219-.546875-3.648438-1.066406-5.425782-1.730469-1.261718-.472656-2.464844-1.054687-3.695312-1.597656-1.664063-.730469-3.328125-1.433594-4.9375-2.273438-1.230469-.632812-2.398438-1.367187-3.597656-2.0625-1.527344-.898437-3.050782-1.785156-4.511719-2.785156-1.167969-.800781-2.28125-1.664063-3.410157-2.519531-1.390624-1.058594-2.773437-2.121094-4.09375-3.273438-1.089843-.945312-2.113281-1.945312-3.144531-2.953125-1.257812-1.214843-2.488281-2.445312-3.671875-3.75-.976562-1.082031-1.90625-2.207031-2.824218-3.34375-.632813-.800781-1.335938-1.496093-1.945313-2.304687h-136.015625c-13.253906 0-24 10.746094-24 24s10.746094 24 24 24h400c13.253906 0 24-10.746094 24-24s-10.746094-24-24-24zm0 0"/><path d="m224 280.011719c14.707031.023437 27.539062-9.96875 31.128906-24.230469 3.585938-14.261719-2.992187-29.132812-15.957031-36.074219-12.96875-6.9375-28.992187-4.164062-38.867187 6.734375-9.878907 10.894532-11.070313 27.113282-2.898438 39.339844 5.933594 8.882812 15.910156 14.222656 26.59375 14.230469zm0 0"/><path d="m40 224.011719v56h110.671875c-1.179687-2.710938-2.199219-5.484375-3.0625-8.3125-.183594-.589844-.304687-1.199219-.472656-1.789063-.800781-2.816406-1.445313-5.675781-1.929688-8.5625-.152343-.945312-.3125-1.871094-.429687-2.816406-.90625-6.21875-1.019532-12.527344-.335938-18.773438.09375-.898437.277344-1.777343.40625-2.671874.25-1.816407.496094-3.632813.863282-5.425782.226562-1.046875.535156-2.070312.800781-3.113281.398437-1.597656.800781-3.199219 1.289062-4.796875.34375-1.082031.800781-2.128906 1.167969-3.203125.542969-1.480469 1.070312-2.964844 1.703125-4.421875.472656-1.074219 1.007813-2.105469 1.519531-3.152344.679688-1.390625 1.351563-2.777344 2.113282-4.128906.582031-1.039062 1.222656-2.039062 1.855468-3.046875.800782-1.296875 1.601563-2.585937 2.503906-3.832031.695313-.992188 1.441407-1.945313 2.183594-2.90625.929688-1.191406 1.871094-2.398438 2.871094-3.527344.800781-.925781 1.65625-1.816406 2.503906-2.703125.609375-.632813 1.152344-1.3125 1.777344-1.917969v-142.195312c-20.242188 6.5-39.195312 16.488281-56 29.511718v105.785157c0 4.417969-3.582031 8-8 8s-8-3.582031-8-8v-92.0625c-35.859375 34.566406-56.082031 82.253906-56 132.0625zm0 0"/><path d="m280 48.730469v142.210937c.609375.589844 1.128906 1.238282 1.710938 1.847656.898437.933594 1.785156 1.871094 2.632812 2.839844.953125 1.09375 1.847656 2.230469 2.734375 3.367188.800781 1.007812 1.601563 2.015625 2.304687 3.054687.800782 1.203125 1.601563 2.402344 2.402344 3.671875.664063 1.058594 1.335938 2.113282 1.949219 3.203125.730469 1.300781 1.378906 2.636719 2.035156 4 .535157 1.09375 1.09375 2.167969 1.597657 3.285157.617187 1.410156 1.136718 2.867187 1.664062 4.304687.410156 1.105469.847656 2.183594 1.199219 3.296875.496093 1.550781.882812 3.136719 1.28125 4.71875.265625 1.058594.585937 2.089844.800781 3.152344.367188 1.792968.617188 3.617187.863281 5.433594.128907.894531.3125 1.765624.410157 2.664062.679687 6.25.570312 12.5625-.339844 18.78125-.117188.9375-.277344 1.867188-.429688 2.800781-.484375 2.898438-1.128906 5.769531-1.9375 8.59375-.160156.582031-.277344 1.175781-.453125 1.757813-.878906 2.824218-1.910156 5.59375-3.097656 8.296875h110.671875v-56c.097656-48.824219-19.308594-95.664063-53.902344-130.113281-.683594-.679688-1.410156-1.300782-2.097656-1.964844v92.078125c0 4.417969-3.582031 8-8 8s-8-3.582031-8-8v-105.886719c-16.839844-12.941406-35.78125-22.886719-56-29.394531zm0 0"/><path d="m160.359375 241.234375c-3.285156 30.742187 15.921875 59.421875 45.601563 68.089844 5.839843 1.816406 11.921874 2.722656 18.039062 2.6875 26.527344.015625 50.308594-16.339844 59.78125-41.117188 9.472656-24.777343 2.667969-52.828125-17.101562-70.515625-1.464844-1.3125-2.976563-2.550781-4.535157-3.71875-9.402343-7.007812-20.554687-11.28125-32.234375-12.351562-1.964844-.199219-3.9375-.296875-5.910156-.296875-32.699219.0625-60.117188 24.714843-63.640625 57.222656zm31.640625-28.910156c16.847656-15.023438 41.902344-16.230469 60.113281-2.898438 18.214844 13.335938 24.628907 37.585938 15.394531 58.183594-9.234374 20.59375-31.605468 31.9375-53.679687 27.210937-22.070313-4.726562-37.839844-24.234374-37.828125-46.808593.007812-13.632813 5.828125-26.613281 16-35.6875zm0 0"/></svg>