<svg height="464pt" viewBox="-40 0 464 464" width="464pt" xmlns="http://www.w3.org/2000/svg"><path d="m192 64c4.417969 0 8-3.582031 8-8v-48c0-4.417969-3.582031-8-8-8s-8 3.582031-8 8v48c0 4.417969 3.582031 8 8 8zm0 0"/><path d="m240 64c4.417969 0 8-3.582031 8-8v-32c0-4.417969-3.582031-8-8-8s-8 3.582031-8 8v32c0 4.417969 3.582031 8 8 8zm0 0"/><path d="m144 64c4.417969 0 8-3.582031 8-8v-32c0-4.417969-3.582031-8-8-8s-8 3.582031-8 8v32c0 4.417969 3.582031 8 8 8zm0 0"/><path d="m200 296c0 4.417969-3.582031 8-8 8s-8-3.582031-8-8 3.582031-8 8-8 8 3.582031 8 8zm0 0"/><path d="m222.558594 259.0625-12.375 21.449219c1.890625 2.210937 3.363281 4.75 4.34375 7.488281h24.738281c-1.839844-11.363281-7.785156-21.660156-16.707031-28.9375zm0 0"/><path d="m150.398438 272c-2.847657 4.945312-4.777344 10.367188-5.695313 16h24.738281c.980469-2.738281 2.453125-5.277344 4.34375-7.488281l-12.34375-21.449219c-4.429687 3.613281-8.171875 7.996094-11.042968 12.9375zm0 0"/><path d="m192 320c-1.464844-.011719-2.921875-.160156-4.359375-.441406l-12.328125 21.351562c10.769531 3.976563 22.605469 3.976563 33.375 0l-12.328125-21.351562c-1.4375.28125-2.894531.429687-4.359375.441406zm0 0"/><path d="m0 432h384v32h-384zm0 0"/><path d="m192 208c-48.601562 0-88 39.398438-88 88s39.398438 88 88 88 88-39.398438 88-88c-.058594-48.578125-39.421875-87.941406-88-88zm64 88c-.003906 2.136719-.871094 4.179688-2.398438 5.671875-.253906.191406-.523437.367187-.800781.519531-.527343.472656-1.117187.871094-1.753906 1.183594-.964844.40625-2 .617188-3.046875.625h-33.472656c-.980469 2.738281-2.453125 5.277344-4.34375 7.488281l16.703125 28.9375c.066406.101563.058593.222657.113281.328125.453125.824219.757812 1.722656.894531 2.652344.109375.953125.046875 1.917969-.191406 2.851562v.191407c-.539063 2.066406-1.882813 3.832031-3.734375 4.902343-.074219.046876-.160156.054688-.234375.097657-19.667969 11.304687-43.863281 11.304687-63.535156 0-.070313 0-.160157-.050781-.230469-.097657-1.851562-1.070312-3.195312-2.835937-3.738281-4.902343 0-.058594 0-.128907 0-.191407-.234375-.933593-.300781-1.898437-.191407-2.851562.140626-.929688.445313-1.828125.898438-2.652344.054688-.105468.046875-.226562.109375-.328125l16.707031-28.9375c-1.867187-2.21875-3.320312-4.753906-4.28125-7.488281h-33.472656c-1.070312 0-2.132812-.214844-3.121094-.632812-.632812-.3125-1.222656-.707032-1.75-1.175782-.277344-.160156-.546875-.335937-.800781-.527344-1.5-1.5-2.339844-3.539062-2.328125-5.664062v-.128906c.003906-22.769532 12.152344-43.8125 31.871094-55.199219.042968-.035156.085937-.066406.128906-.097656.9375-.539063 1.972656-.882813 3.046875-1.007813.425781-.003906.851563.023438 1.273437.089844.589844-.023438 1.179688.019531 1.757813.128906.824219.25 1.601563.628906 2.304687 1.117188.136719.097656.304688.121094.441407.226562.757812.59375 1.398437 1.320313 1.894531 2.144532.066406.085937.152344.132812.210938.230468l16.664062 28.863282c2.875-.585938 5.839844-.585938 8.71875 0l16.664062-28.863282c.078126-.136718.214844-.214844.304688-.34375.824219-1.472656 2.195312-2.558594 3.816406-3.023437.238282-.089844.445313-.273438.695313-.335938 2.0625-.570312 4.265625-.28125 6.109375.800781.039062.027344.074218.058594.105468.09375 19.757813 11.351563 31.957032 32.390626 31.992188 55.175782zm0 0"/><path d="m104 96v4.800781c.003906 24.136719-3.519531 48.144531-10.464844 71.261719l-51.742187 172.496094c-6.5 21.617187-9.796875 44.070312-9.792969 66.640625v4.800781h320v-4.800781c.007812-22.578125-3.292969-45.039063-9.792969-66.664063l-51.742187-172.535156c-6.9375-23.097656-10.464844-47.082031-10.464844-71.199219v-4.800781zm192 200c0 57.4375-46.5625 104-104 104s-104-46.5625-104-104 46.5625-104 104-104c57.410156.066406 103.933594 46.589844 104 104zm0 0"/></svg>