<svg height="448pt" viewBox="-27 0 448 448" width="448pt" xmlns="http://www.w3.org/2000/svg"><path d="m138.527344 192h128v128h-128zm0 0"/><path d="m394.527344 56c-.039063-30.910156-25.085938-55.9609375-56-56h-12.152344l-61.597656 77c-1.519532 1.898438-3.820313 3-6.25 3h-164.6875l-83.3125 83.3125v228.6875c.039062 30.910156 25.089844 55.960938 56 56h272c30.914062-.039062 55.960937-25.089844 56-56zm-74.34375 306.34375c2.082031 2.007812 2.914062 4.984375 2.183594 7.78125-.734376 2.796875-2.917969 4.980469-5.714844 5.710938-2.796875.734374-5.773438-.101563-7.78125-2.179688l-37.65625-37.65625h-137.375l-33.65625 33.65625c-3.136719 3.03125-8.128906 2.988281-11.214844-.097656-3.085938-3.085938-3.128906-8.074219-.097656-11.214844l33.65625-33.65625v-137.375l-33.65625-33.65625c-3.03125-3.140625-2.988282-8.128906.097656-11.214844 3.085938-3.085937 8.078125-3.128906 11.214844-.097656l33.65625 33.65625h137.375l37.65625-37.65625c3.140625-3.03125 8.128906-2.988281 11.214844.097656 3.085937 3.085938 3.128906 8.074219.097656 11.214844l-37.65625 37.65625v137.375zm0 0"/><path d="m0 115.285156 45.25-45.25 17.964844 17.96875-45.25 45.246094zm0 0"/><path d="m98.527344 64h16v-24c0-13.253906 10.746094-24 24-24h154.554687l12.796875-16h-183.351562c-13.253906 0-24 10.746094-24 24zm0 0"/></svg>