<svg height="448pt" viewBox="-64 0 448 448" width="448pt" xmlns="http://www.w3.org/2000/svg"><path d="m313.390625 200.609375c-1.886719 1.207031-3.863281 2.398437-5.949219 3.519531-.320312.175782-.65625.335938-.976562.511719-1.871094.992187-3.824219 1.960937-5.832032 2.902344-.585937.273437-1.167968.554687-1.761718.800781-2.328125 1.054688-4.726563 2.089844-7.199219 3.070312l-1.007813.378907c-2.265624.878906-4.601562 1.726562-6.992187 2.542969l-2.023437.695312c-2.703126.898438-5.464844 1.769531-8.304688 2.601562l-1 .277344c-2.601562.746094-5.265625 1.457032-8 2.152344l-2.246094.5625c-3.007812.742188-6.066406 1.464844-9.1875 2.128906l-.910156.191406c-2.886719.605469-5.832031 1.183594-8.800781 1.734376l-2.398438.449218c-3.25.574219-6.527343 1.128906-9.863281 1.597656l-.800781.113282c-3.121094.464844-6.265625.898437-9.441407 1.304687l-2.625.328125c-3.40625.414063-6.839843.796875-10.292968 1.144532l-.546875.046874c-3.308594.320313-6.636719.605469-9.984375.855469l-2.695313.199219c-3.511719.242188-7.015625.464844-10.542969.640625h-.382812c-3.4375.160156-6.867188.285156-10.296875.375l-2.664063.066406c-3.558593.070313-7.105468.128907-10.648437.128907s-7.085937-.058594-10.648437-.128907l-2.664063-.066406c-3.429687-.09375-6.859375-.21875-10.296875-.375h-.382812c-3.527344-.175781-7.03125-.398437-10.542969-.640625l-2.695313-.199219c-3.34375-.253906-6.671875-.539062-9.984375-.855469l-.542969-.046874c-3.457031-.347657-6.890624-.730469-10.296874-1.144532l-2.625-.328125c-3.167969-.410156-6.316407-.847656-9.441407-1.304687l-.796875-.113282c-3.335937-.511718-6.617187-1.0625-9.867187-1.597656l-2.398438-.449218c-2.976562-.550782-5.921875-1.128907-8.800781-1.734376l-.910156-.191406c-3.121094-.664062-6.175782-1.386718-9.183594-2.128906l-2.25-.5625c-2.703125-.695312-5.367188-1.40625-8-2.152344l-1-.277344c-2.839844-.800781-5.597656-1.703124-8.304688-2.601562l-2.023437-.695312c-2.398437-.800782-4.726563-1.664063-6.992187-2.542969l-1.007813-.378907c-2.496094-.980468-4.894531-2.015624-7.199219-3.070312-.59375-.265625-1.175781-.542969-1.761718-.800781-2.007813-.941407-4-1.910157-5.832032-2.902344-.320312-.175781-.65625-.335937-.972656-.511719-2.089844-1.136718-4.066406-2.3125-5.953125-3.519531-.480469-.304687-.945313-.625-1.410156-.929687-1.597657-1.0625-3.132813-2.160157-4.574219-3.273438-.207031-.160156-.449219-.308594-.65625-.46875v92.0625c0 22.664062 68.425781 48 160 48s160-25.335938 160-48v-92.0625c-.207031.160156-.449219.308594-.65625.46875-1.441406 1.113281-2.96875 2.210938-4.574219 3.273438-.433593.320312-.898437.625-1.378906.929687zm0 0"/><path d="m160.03125 448c91.578125 0 160-25.335938 160-48v-84.0625c-.207031.160156-.445312.308594-.65625.46875-1.4375 1.113281-2.96875 2.210938-4.574219 3.273438-.464843.304687-.929687.625-1.410156.929687-1.886719 1.207031-3.863281 2.398437-5.949219 3.519531-.320312.175782-.65625.335938-.976562.511719-1.871094.992187-3.824219 1.960937-5.832032 2.902344-.585937.273437-1.167968.554687-1.761718.800781-2.328125 1.054688-4.726563 2.089844-7.199219 3.070312l-1.007813.378907c-2.265624.878906-4.601562 1.726562-6.992187 2.542969l-2.023437.695312c-2.703126.898438-5.464844 1.769531-8.304688 2.601562l-1 .277344c-2.601562.746094-5.265625 1.457032-8 2.152344l-2.246094.5625c-3.007812.742188-6.066406 1.464844-9.1875 2.128906l-.910156.191406c-2.886719.605469-5.832031 1.183594-8.800781 1.734376l-2.398438.449218c-3.25.574219-6.527343 1.128906-9.863281 1.597656l-.800781.113282c-3.121094.464844-6.265625.898437-9.441407 1.304687l-2.625.328125c-3.40625.414063-6.839843.796875-10.292968 1.144532l-.546875.046874c-3.308594.320313-6.636719.605469-9.984375.855469l-2.695313.199219c-3.511719.242188-7.015625.464844-10.542969.640625h-.382812c-3.4375.160156-6.867188.285156-10.296875.375l-2.664063.066406c-3.558593.070313-7.105468.128907-10.648437.128907s-7.085937-.058594-10.648437-.128907l-2.664063-.066406c-3.429687-.09375-6.859375-.21875-10.296875-.375h-.382812c-3.527344-.175781-7.03125-.398437-10.542969-.640625l-2.695313-.199219c-3.34375-.253906-6.671875-.539062-9.984375-.855469l-.542969-.046874c-3.457031-.347657-6.890624-.730469-10.296874-1.144532l-2.625-.328125c-3.167969-.410156-6.316407-.847656-9.441407-1.304687l-.796875-.113282c-3.335937-.511718-6.617187-1.0625-9.867187-1.597656l-2.398438-.449218c-2.976562-.550782-5.921875-1.128907-8.800781-1.734376l-.910156-.191406c-3.121094-.664062-6.175782-1.386718-9.183594-2.128906l-2.25-.5625c-2.703125-.695312-5.367188-1.40625-8-2.152344l-1-.277344c-2.839844-.800781-5.597656-1.703124-8.304688-2.601562l-2.023437-.695312c-2.398437-.800782-4.726563-1.664063-6.992187-2.542969l-1.007813-.378907c-2.496094-.980468-4.894531-2.015624-7.199219-3.070312-.59375-.265625-1.175781-.542969-1.761718-.800781-2.007813-.941407-4-1.910157-5.832032-2.902344-.320312-.175781-.65625-.335937-.972656-.511719-2.089844-1.136718-4.066406-2.3125-5.953125-3.519531-.480469-.304687-.945313-.625-1.410156-.929687-1.597657-1.0625-3.132813-2.160157-4.574219-3.273438-.207031-.160156-.449219-.308594-.65625-.46875v84.0625c.03125 22.664062 68.457031 48 160.03125 48zm0 0"/><path d="m320.03125 75.9375c-.207031.160156-.445312.308594-.65625.46875-1.4375 1.113281-2.96875 2.210938-4.574219 3.273438-.464843.304687-.929687.625-1.410156.929687-1.886719 1.207031-3.863281 2.398437-5.949219 3.519531-.320312.175782-.65625.335938-.976562.511719-1.871094.992187-3.824219 1.960937-5.832032 2.902344-.585937.273437-1.167968.554687-1.761718.800781-2.328125 1.054688-4.726563 2.089844-7.199219 3.070312l-1.007813.378907c-2.265624.878906-4.601562 1.726562-6.992187 2.542969l-2.023437.695312c-2.703126.898438-5.464844 1.769531-8.304688 2.601562l-1 .277344c-2.601562.746094-5.265625 1.457032-8 2.152344l-2.246094.5625c-3.007812.742188-6.066406 1.464844-9.1875 2.128906l-.910156.191406c-2.886719.605469-5.832031 1.183594-8.800781 1.734376l-2.398438.449218c-3.25.574219-6.527343 1.128906-9.863281 1.597656l-.800781.113282c-3.121094.464844-6.265625.898437-9.441407 1.304687l-2.625.328125c-3.40625.414063-6.839843.796875-10.292968 1.144532l-.546875.046874c-3.308594.320313-6.636719.605469-9.984375.855469l-2.695313.199219c-3.511719.242188-7.015625.464844-10.542969.640625h-.382812c-3.4375.160156-6.867188.285156-10.296875.375l-2.664063.066406c-3.558593.070313-7.105468.128907-10.648437.128907s-7.085937-.058594-10.648437-.128907l-2.664063-.066406c-3.429687-.09375-6.859375-.21875-10.296875-.375h-.382812c-3.527344-.175781-7.03125-.398437-10.542969-.640625l-2.695313-.199219c-3.34375-.253906-6.671875-.539062-9.984375-.855469l-.542969-.046874c-3.457031-.34375-6.890624-.722657-10.296874-1.144532l-2.625-.328125c-3.167969-.40625-6.316407-.839843-9.441407-1.304687l-.796875-.113282c-3.335937-.511718-6.617187-1.0625-9.867187-1.597656l-2.398438-.449218c-2.976562-.550782-5.921875-1.128907-8.800781-1.734376l-.910156-.191406c-3.121094-.664062-6.175782-1.386718-9.183594-2.128906l-2.25-.5625c-2.703125-.695312-5.367188-1.40625-8-2.152344l-1-.277344c-2.839844-.800781-5.597656-1.703124-8.304688-2.601562l-2.023437-.695312c-2.398437-.800782-4.726563-1.664063-6.992187-2.542969l-1.007813-.378907c-2.496094-.980468-4.894531-2.015624-7.199219-3.070312-.59375-.265625-1.175781-.542969-1.761718-.800781-2.007813-.941407-4-1.910157-5.832032-2.902344-.320312-.175781-.65625-.335937-.972656-.511719-2.089844-1.136718-4.066406-2.3125-5.953125-3.519531-.480469-.304687-.945313-.625-1.410156-.929687-1.597657-1.0625-3.132813-2.160157-4.574219-3.273438-.207031-.160156-.449219-.308594-.65625-.46875v92.0625c0 22.664062 68.425781 48 160 48s160-25.335938 160-48zm0 0"/><path d="m160.03125 0c-91.574219 0-160 25.335938-160 48s68.425781 48 160 48c91.578125 0 160-25.335938 160-48s-68.421875-48-160-48zm-88 72c-22.808594 0-40-10.320312-40-24s17.191406-24 40-24 40 10.320312 40 24-17.191406 24-40 24zm0 0"/><path d="m96.03125 48c0-4.417969-10.746094-8-24-8s-24 3.582031-24 8 10.746094 8 24 8 24-3.582031 24-8zm0 0"/></svg>