<svg height="448pt" viewBox="0 0 448 448.04003" width="448pt" xmlns="http://www.w3.org/2000/svg"><path d="m448.039062 384.019531c-.039062-35.328125-28.667968-63.960937-64-64-4.214843.003907-8.421874.414063-12.558593 1.214844l-4.175781.800781-241.28125-241.277344.800781-4.179687c.804687-4.136719 1.210937-8.34375 1.214843-12.558594.066407-19.453125-8.773437-37.867187-24-49.976562v53.976562l-40 30-40-30v-53.976562c-21.226562 16.984375-29.410156 45.519531-20.40625 71.171875 9 25.648437 33.222657 42.8125 60.40625 42.804687 4.214844-.003906 8.421876-.410156 12.5625-1.214843l4.175782-.800782 241.277344 241.28125-.796876 4.175782c-.804687 4.136718-1.210937 8.34375-1.21875 12.558593-.066406 19.453125 8.777344 37.867188 24 49.976563v-53.976563l40-30 40 30v53.976563c15.226563-12.109375 24.066407-30.523438 24-49.976563zm0 0"/><path d="m280.601562 212.707031 86.703126-86.703125 4.175781.800782c23.460937 4.621093 47.546875-4.152344 62.535156-22.785157h-53.976563l-30-40 30-40h53.976563c-16.980469-21.226562-45.519531-29.410156-71.167969-20.410156-25.652344 9.003906-42.816406 33.226563-42.808594 60.410156.007813 4.214844.414063 8.421875 1.21875 12.558594l.796876 4.179687-86.703126 86.703126zm0 0"/><path d="m167.480469 235.332031-86.703125 86.703125-4.175782-.800781c-23.460937-4.636719-47.558593 4.140625-62.539062 22.785156h53.976562l30 40-30 40h-53.976562c16.984375 21.226563 45.519531 29.410157 71.171875 20.410157 25.648437-9.003907 42.8125-33.226563 42.804687-60.410157-.003906-4.214843-.410156-8.421875-1.214843-12.558593l-.800781-4.175782 86.703124-86.707031zm0 0"/></svg>