<svg height="448pt" viewBox="0 -84 448 448" width="448pt" xmlns="http://www.w3.org/2000/svg"><path d="m128 48h-99.296875l-28.703125 51.601562v44.398438h128zm-16 72c0 4.417969-3.582031 8-8 8h-80c-4.417969 0-8-3.582031-8-8v-14.167969c0-1.363281.34375-2.703125 1.007812-3.894531l18.816407-33.824219c1.410156-2.539062 4.085937-4.113281 6.992187-4.113281h61.183594c4.417969 0 8 3.582031 8 8zm0 0"/><path d="m240.664062 240h-129.328124c.046874.28125 0 .566406.070312.855469.792969 4.742187.792969 9.578125 0 14.320312 0 .273438 0 .550781-.070312.800781h129.328124c-.046874-.28125 0-.570312-.070312-.855468-.792969-4.742188-.792969-9.582032 0-14.320313.039062-.25.023438-.527343.070312-.800781zm0 0"/><path d="m32 107.902344v4.097656h64v-32h-48.480469zm0 0"/><path d="m16.664062 240h-16.664062v16h16.664062c-.046874-.28125 0-.566406-.070312-.855469-.792969-4.742187-.792969-9.578125 0-14.320312.039062-.273438.023438-.550781.070312-.824219zm0 0"/><path d="m96 248c.042969-15.1875-10.597656-28.316406-25.464844-31.417969-14.871094-3.101562-29.871094 4.679688-35.902344 18.617188-3.515624 8.199219-3.515624 17.480469 0 25.679687 5.121094 11.644532 16.640626 19.164063 29.363282 19.164063s24.242187-7.519531 29.363281-19.164063c1.746094-4.066406 2.644531-8.449218 2.640625-12.878906zm-32 16c-8.835938 0-16-7.164062-16-16s7.164062-16 16-16 16 7.164062 16 16-7.164062 16-16 16zm0 0"/><path d="m99.34375 215.664062c.640625.695313 1.273438 1.382813 1.863281 2.113282.800781 1.007812 1.601563 2.070312 2.320313 3.152344.527344.757812 1.074218 1.503906 1.550781 2.300781.167969.265625.371094.496093.523437.800781h22.398438v-64.03125h-128v64h22.398438c.160156-.28125.378906-.527344.546874-.800781.421876-.6875.894532-1.335938 1.34375-2 .800782-1.207031 1.664063-2.398438 2.574219-3.503907.519531-.632812 1.074219-1.222656 1.601563-1.832031.949218-1.039062 1.925781-2.046875 2.960937-3 .613281-.566406 1.238281-1.109375 1.886719-1.648437 1.066406-.875 2.152344-1.699219 3.253906-2.480469.707032-.488281 1.402344-.964844 2.128906-1.421875 1.144532-.710938 2.328126-1.351562 3.527344-1.96875.800782-.390625 1.53125-.800781 2.320313-1.144531 1.25-.558594 2.535156-1.015625 3.839843-1.472657.800782-.269531 1.5625-.574218 2.402344-.796874 1.4375-.417969 2.910156-.707032 4.390625-.984376.703125-.136718 1.390625-.328124 2.113281-.433593 4.460938-.660157 8.992188-.660157 13.453126 0 .730468.105469 1.425781.296875 2.144531.433593 1.464843.277344 2.929687.566407 4.351562.976563.800781.238281 1.601563.558594 2.402344.839844 1.269531.4375 2.527344.886719 3.75 1.429687.800781.367188 1.601563.800782 2.402344 1.207032 1.144531.585937 2.269531 1.195312 3.359375 1.875.800781.488281 1.550781 1.015624 2.320312 1.542968 1.03125.726563 2.039063 1.488282 3.015625 2.296875.726563.597657 1.433594 1.214844 2.121094 1.855469.992187.847656 1.871094 1.757812 2.734375 2.695312zm0 0"/><path d="m320 248c-.050781-12.992188-7.953125-24.660156-19.996094-29.535156-12.039062-4.871094-25.832031-1.980469-34.90625 7.316406-9.074218 9.296875-11.625 23.15625-6.457031 35.074219 5.121094 11.644531 16.640625 19.164062 29.363281 19.164062s24.242188-7.519531 29.363282-19.164062c1.742187-4.0625 2.636718-8.4375 2.632812-12.855469zm-32 16c-8.835938 0-16-7.164062-16-16s7.164062-16 16-16 16 7.164062 16 16-7.164062 16-16 16zm0 0"/><path d="m439.335938 256h8.664062v-16h-8.664062c.046874.28125 0 .566406.070312.855469.792969 4.742187.792969 9.578125 0 14.320312-.039062.273438-.023438.550781-.070312.824219zm0 0"/><path d="m448 0h-272v176h272zm-224 152c0 4.417969-3.582031 8-8 8s-8-3.582031-8-8v-128c0-4.417969 3.582031-8 8-8s8 3.582031 8 8zm48 0c0 4.417969-3.582031 8-8 8s-8-3.582031-8-8v-128c0-4.417969 3.582031-8 8-8s8 3.582031 8 8zm48 0c0 4.417969-3.582031 8-8 8s-8-3.582031-8-8v-128c0-4.417969 3.582031-8 8-8s8 3.582031 8 8zm48 0c0 4.417969-3.582031 8-8 8s-8-3.582031-8-8v-128c0-4.417969 3.582031-8 8-8s8 3.582031 8 8zm48 0c0 4.417969-3.582031 8-8 8s-8-3.582031-8-8v-128c0-4.417969 3.582031-8 8-8s8 3.582031 8 8zm0 0"/><path d="m448 192h-304v32h102.398438c.160156-.28125.378906-.527344.546874-.800781.421876-.6875.894532-1.335938 1.34375-2 .800782-1.207031 1.664063-2.398438 2.574219-3.503907.519531-.632812 1.074219-1.222656 1.601563-1.832031.949218-1.039062 1.925781-2.046875 2.960937-3 .613281-.566406 1.238281-1.109375 1.886719-1.648437 1.066406-.875 2.152344-1.699219 3.253906-2.480469.707032-.488281 1.402344-.964844 2.128906-1.421875 1.144532-.710938 2.328126-1.351562 3.527344-1.96875.800782-.390625 1.53125-.800781 2.320313-1.144531 1.25-.558594 2.535156-1.015625 3.839843-1.472657.800782-.269531 1.601563-.574218 2.402344-.796874 1.4375-.417969 2.910156-.707032 4.390625-.984376.703125-.136718 1.390625-.328124 2.113281-.433593 4.460938-.660157 8.992188-.660157 13.453126 0 .730468.105469 1.425781.296875 2.144531.433593 1.464843.277344 2.929687.566407 4.351562.976563.800781.238281 1.601563.558594 2.402344.839844 1.269531.4375 2.527344.886719 3.75 1.429687.800781.367188 1.601563.800782 2.402344 1.207032 1.144531.585937 2.269531 1.195312 3.359375 1.875.800781.488281 1.550781 1.015624 2.320312 1.542968 1.03125.726563 2.039063 1.488282 3.015625 2.296875.726563.597657 1.433594 1.214844 2.121094 1.855469.933594.863281 1.816406 1.773438 2.679687 2.710938.640626.695312 1.269532 1.382812 1.863282 2.113281.800781 1.007812 1.601562 2.070312 2.320312 3.152343.527344.757813 1.070313 1.503907 1.550782 2.300782.167968.265625.367187.496094.519531.800781h20.800781c.160156-.277344.375-.527344.542969-.800781.425781-.6875.898437-1.335938 1.34375-2 .800781-1.207032 1.664062-2.398438 2.578125-3.503906.519531-.628907 1.070312-1.222657 1.597656-1.832032.953125-1.039062 1.929688-2.046875 2.960938-3 .617187-.566406 1.242187-1.109375 1.890624-1.644531 1.066407-.875 2.148438-1.703125 3.253907-2.480469.703125-.488281 1.398437-.96875 2.128906-1.425781 1.144531-.710937 2.328125-1.351563 3.527344-1.96875.800781-.390625 1.527343-.796875 2.320312-1.144531 1.246094-.558594 2.535157-1.015625 3.839844-1.46875.800781-.273438 1.601563-.578125 2.398437-.800782 1.441407-.417968 2.914063-.703124 4.394532-.984374.703125-.136719 1.390625-.328126 2.109375-.433594 4.460937-.660156 8.996093-.660156 13.457031 0 .726562.105468 1.425781.296875 2.144531.433594 1.464844.28125 2.929688.566406 4.351563.976562.800781.238281 1.601562.558594 2.402344.839844 1.269531.4375 2.527343.886718 3.75 1.429687.800781.371094 1.601562.800781 2.398437 1.210938 1.144531.582031 2.273437 1.191406 3.363281 1.871093.796875.488282 1.550782 1.015626 2.316406 1.542969 1.035157.730469 2.042969 1.488281 3.019532 2.296875.726562.601563 1.429687 1.214844 2.117187 1.855469.9375.863281 1.816407 1.777344 2.679688 2.710937.640625.699219 1.273437 1.386719 1.867187 2.113282.796875 1.007812 1.597656 2.070312 2.316406 3.152344.53125.761718 1.074219 1.503906 1.554688 2.304687.167969.261719.367188.496094.519531.800781h14.511719zm0 0"/><path d="m424 248c-.050781-12.992188-7.953125-24.660156-19.996094-29.535156-12.039062-4.871094-25.832031-1.980469-34.90625 7.316406-9.074218 9.296875-11.625 23.15625-6.457031 35.074219 5.121094 11.644531 16.640625 19.164062 29.363281 19.164062s24.242188-7.519531 29.363282-19.164062c1.742187-4.0625 2.636718-8.4375 2.632812-12.855469zm-32 16c-8.835938 0-16-7.164062-16-16s7.164062-16 16-16 16 7.164062 16 16-7.164062 16-16 16zm0 0"/><path d="m344.664062 240h-9.328124c.046874.28125 0 .566406.070312.855469.792969 4.742187.792969 9.578125 0 14.320312-.039062.273438 0 .550781-.070312.800781h9.328124c-.046874-.28125 0-.570312-.070312-.855468-.792969-4.742188-.792969-9.582032 0-14.320313.039062-.25.023438-.527343.070312-.800781zm0 0"/></svg>