<svg height="448pt" viewBox="-40 0 448 448" width="448pt" xmlns="http://www.w3.org/2000/svg"><path d="m368 448v-448h-368v448zm-184-16c-48.601562 0-88-39.398438-88-88s39.398438-88 88-88 88 39.398438 88 88c-.058594 48.578125-39.421875 87.941406-88 88zm-168-408c0-4.417969 3.582031-8 8-8h320c4.417969 0 8 3.582031 8 8v192c0 4.417969-3.582031 8-8 8h-320c-4.417969 0-8-3.582031-8-8zm0 0"/><path d="m184 176c-19 .023438-35.371094 13.386719-39.199219 32h78.398438c-3.828125-18.613281-20.199219-31.976562-39.199219-32zm0 0"/><path d="m256 344c0 39.765625-32.234375 72-72 72s-72-32.234375-72-72 32.234375-72 72-72 72 32.234375 72 72zm0 0"/><path d="m176 160.640625v-72.640625c0-4.417969 3.582031-8 8-8s8 3.582031 8 8v72.640625c24.527344 3.566406 43.792969 22.832031 47.359375 47.359375h96.640625v-176h-304v176h96.640625c3.566406-24.527344 22.832031-43.792969 47.359375-47.359375zm-109.800781-28.640625c-2.273438 3.675781-7.058594 4.882812-10.804688 2.71875-3.742187-2.164062-5.089843-6.910156-3.042969-10.71875 27.167969-47.015625 77.347657-75.972656 131.648438-75.972656s104.480469 28.957031 131.648438 75.972656c2.046874 3.808594.699218 8.554688-3.042969 10.71875-3.746094 2.164062-8.53125.957031-10.804688-2.71875-24.304687-42.078125-69.207031-67.996094-117.800781-67.996094s-93.496094 25.917969-117.800781 67.996094zm0 0"/></svg>