<?xml version="1.0" encoding="UTF-8" standalone="no"?>
<!-- Created with Inkscape (http://www.inkscape.org/) -->

<svg
   xmlns:dc="http://purl.org/dc/elements/1.1/"
   xmlns:cc="http://creativecommons.org/ns#"
   xmlns:rdf="http://www.w3.org/1999/02/22-rdf-syntax-ns#"
   xmlns:svg="http://www.w3.org/2000/svg"
   xmlns="http://www.w3.org/2000/svg"
   xmlns:sodipodi="http://sodipodi.sourceforge.net/DTD/sodipodi-0.dtd"
   xmlns:inkscape="http://www.inkscape.org/namespaces/inkscape"
   width="75.262123mm"
   height="63.427635mm"
   viewBox="0 0 75.262123 63.427635"
   version="1.1"
   id="svg8"
   inkscape:version="0.92.3 (2405546, 2018-03-11)"
   sodipodi:docname="pkenergy_bw.svg">
  <defs
     id="defs2" />
  <sodipodi:namedview
     id="base"
     pagecolor="#ffffff"
     bordercolor="#666666"
     borderopacity="1.0"
     inkscape:pageopacity="0.0"
     inkscape:pageshadow="2"
     inkscape:zoom="2.16"
     inkscape:cx="49.164972"
     inkscape:cy="86.338785"
     inkscape:document-units="mm"
     inkscape:current-layer="layer1"
     showgrid="false"
     inkscape:window-width="1920"
     inkscape:window-height="1046"
     inkscape:window-x="-11"
     inkscape:window-y="-11"
     inkscape:window-maximized="1" />
  <metadata
     id="metadata5">
    <rdf:RDF>
      <cc:Work
         rdf:about="">
        <dc:format>image/svg+xml</dc:format>
        <dc:type
           rdf:resource="http://purl.org/dc/dcmitype/StillImage" />
        <dc:title></dc:title>
      </cc:Work>
    </rdf:RDF>
  </metadata>
  <g
     inkscape:label="Layer 1"
     inkscape:groupmode="layer"
     id="layer1"
     transform="translate(-26.160915,-61.725487)">
    <path
       style="fill:none;stroke:#000000;stroke-width:0.26458332px;stroke-linecap:butt;stroke-linejoin:miter;stroke-opacity:1"
       d="m 26.29355,62.373483 0.164783,62.647347 h 6.40121 L 30.299059,95.148521 63.585348,61.862231 Z"
       id="path3713"
       inkscape:connector-curvature="0"
       sodipodi:nodetypes="cccccc" />
    <path
       style="fill:none;stroke:#000000;stroke-width:0.21191049px;stroke-linecap:butt;stroke-linejoin:miter;stroke-opacity:1"
       d="M 31.256355,66.41592 53.876018,65.860858 31.08658,86.399952 Z"
       id="path3715"
       inkscape:connector-curvature="0"
       sodipodi:nodetypes="cccc" />
    <path
       style="fill:#000000;stroke:#000000;stroke-width:0.26255453px;stroke-linecap:butt;stroke-linejoin:miter;stroke-opacity:1"
       d="m 89.968088,93.317159 v 0 l -26.383654,-31.455601 37.597886,29.511796 -0.16479,33.054936 -6.40149,0.27716 2.124751,-28.010856 -26.493728,26.781266 v 0 L 89.968088,93.317159 101.29176,61.870382 101.18232,91.373354"
       id="path3713-9"
       inkscape:connector-curvature="0"
       sodipodi:nodetypes="cccccccccccc" />
    <path
       style="fill:#000000;stroke-width:0.99009901"
       d="m 100.87674,404.24169 c -0.36171,-36.84728 -0.65765,-89.59172 -0.65765,-117.20987 v -50.21481 l 44.30693,-0.60837 c 24.36881,-0.33461 55.44554,-0.85995 69.0594,-1.16743 l 24.75248,-0.55905 -62.45614,62.68423 -62.45615,62.68422 4.18545,48.0198 c 2.302,26.41089 4.48491,51.47278 4.85092,55.69307 l 0.66547,7.67327 h -10.79653 -10.79654 z m 61.22353,-116.65654 c 22.32674,-20.05138 41.26238,-37.1058 42.07921,-37.89872 1.30071,-1.26263 -2.87993,-1.36346 -33.66336,-0.8119 -19.33169,0.34637 -39.26981,0.90239 -44.30694,1.23561 l -9.15841,0.60583 v 38.6508 38.6508 l 2.22772,-1.98769 c 1.22525,-1.09322 20.49505,-18.39335 42.82178,-38.44473 z"
       id="path3735"
       inkscape:connector-curvature="0"
       transform="scale(0.26458333)" />
    <path
       style="fill:#f9f9f9;stroke-width:0.99009901"
       d="m 124.86631,470.98923 c -0.003,-0.6807 -2.00838,-24.39681 -4.45544,-52.70247 -2.44707,-28.30566 -4.44921,-53.03471 -4.44921,-54.95345 0,-3.29439 3.46464,-6.95291 62.23828,-65.72099 l 62.23827,-62.2324 11.79924,14.21555 c 63.04177,75.95177 86.53273,104.95039 85.90443,106.04545 -0.70536,1.22934 -41.48562,64.75458 -62.58777,97.49578 -6.0434,9.37666 -10.66054,17.25084 -10.26033,17.49819 0.40022,0.24735 22.76263,-22.20772 49.69428,-49.90015 26.93163,-27.69244 49.09721,-50.21926 49.25686,-50.05962 0.37151,0.37152 -6.64904,96.352 -7.26513,99.32401 l -0.46179,2.22772 H 240.69527 c -91.99478,0 -115.824,-0.25461 -115.82896,-1.23762 z"
       id="path4553"
       inkscape:connector-curvature="0"
       transform="scale(0.26458333)" />
    <path
       style="fill:#f9f9f9;stroke-width:0.99009901"
       d="m 297.14142,278.02405 -53.848,-42.92591 68.67053,-0.25435 c 37.76879,-0.1399 68.84086,-0.084 69.04904,0.12416 0.27826,0.27826 -22.75749,66.33994 -29.29889,84.02305 -0.63167,1.70754 -7.63594,-3.55047 -54.57268,-40.96695 z"
       id="path4555"
       inkscape:connector-curvature="0"
       transform="scale(0.26458333)" />
    <path
       style="fill:#f9f9f9;stroke-width:0.99009901"
       d="m 118.64988,288.34799 c 0.30104,-20.02999 0.59905,-36.47654 0.66224,-36.54787 0.19284,-0.2177 81.28309,-2.01893 81.5837,-1.81219 0.23028,0.15838 -66.68334,60.68048 -79.16076,71.59942 l -3.63254,3.17881 z"
       id="path4557"
       inkscape:connector-curvature="0"
       transform="scale(0.26458333)" />
    <circle
       style="fill:#333333;stroke-width:0.26458332"
       id="path4559"
       cx="62.609325"
       cy="95.811874"
       r="17.289604" />
  </g>
</svg>
