<svg height="448pt" viewBox="0 -3 448 448" width="448pt" xmlns="http://www.w3.org/2000/svg"><path d="m128 377.503906c-17.671875 0-32 14.328125-32 32s14.328125 32 32 32 32-14.328125 32-32-14.328125-32-32-32zm0 48c-8.835938 0-16-7.164062-16-16 0-8.835937 7.164062-16 16-16s16 7.164063 16 16c0 8.835938-7.164062 16-16 16zm0 0"/><path d="m320 377.503906c-17.671875 0-32 14.328125-32 32s14.328125 32 32 32 32-14.328125 32-32-14.328125-32-32-32zm0 48c-8.835938 0-16-7.164062-16-16 0-8.835937 7.164062-16 16-16s16 7.164063 16 16c0 8.835938-7.164062 16-16 16zm0 0"/><path d="m356.96875 378.929688c1.597656 1.949218 3.039062 4.023437 4.3125 6.199218.175781.304688.367188.589844.542969.894532 1.183593 2.121093 2.203125 4.328124 3.054687 6.601562.152344.414062.3125.800781.457032 1.246094.800781 2.316406 1.417968 4.6875 1.855468 7.097656.039063.183594.113282.351562.144532.535156h33.550781l7.527343-64h-368.828124l7.527343 64h33.550781c0-.183594.105469-.351562.144532-.535156.4375-2.410156 1.054687-4.78125 1.855468-7.097656.144532-.414063.304688-.800782.457032-1.246094.847656-2.277344 1.871094-4.484375 3.0625-6.601562.167968-.304688.359375-.589844.535156-.886719 1.273438-2.179688 2.714844-4.257813 4.3125-6.207031l.136719-.152344c1.617187-1.925782 3.386719-3.714844 5.289062-5.359375.214844-.195313.40625-.394531.621094-.570313 1.871094-1.566406 3.859375-2.988281 5.945313-4.253906.351562-.21875.695312-.433594 1.054687-.640625 2.09375-1.210937 4.273437-2.257813 6.523437-3.136719l1.191407-.441406c2.34375-.847656 4.75-1.515625 7.199219-1.992188.320312-.0625.640624-.09375.960937-.152343 5.324219-.96875 10.785156-.96875 16.109375 0 .320312.058593.640625.089843.960938.152343 2.449218.476563 4.855468 1.144532 7.199218 1.992188l1.191406.441406c2.25.878906 4.429688 1.925782 6.523438 3.136719.359375.207031.703125.421875 1.054688.640625 2.085937 1.265625 4.074218 2.6875 5.945312 4.253906.214844.175782.40625.375.621094.570313 1.902344 1.644531 3.671875 3.433593 5.289062 5.359375l.136719.152344c1.597656 1.949218 3.039063 4.023437 4.3125 6.199218.175781.304688.367187.589844.542969.894532 1.183594 2.121093 2.203125 4.328124 3.054687 6.601562.152344.414062.3125.800781.457031 1.246094.800782 2.316406 1.421876 4.6875 1.855469 7.097656 0 .183594.113281.351562.144531.535156h97.3125c0-.183594.105469-.351562.144532-.535156.4375-2.410156 1.054687-4.78125 1.855468-7.097656.144532-.414063.304688-.800782.457032-1.246094.847656-2.277344 1.871094-4.484375 3.0625-6.601562.167968-.304688.359375-.589844.535156-.886719 1.273438-2.179688 2.714844-4.257813 4.3125-6.207031l.136719-.152344c1.617187-1.925782 3.386719-3.714844 5.289062-5.359375.214844-.195313.40625-.394531.621094-.570313 1.871094-1.566406 3.859375-2.988281 5.945313-4.253906.351562-.21875.695312-.433594 1.054687-.640625 2.09375-1.210937 4.273437-2.257813 6.523437-3.136719l1.191407-.441406c2.34375-.847656 4.75-1.515625 7.199219-1.992188.320312-.0625.640624-.09375.960937-.152343 5.324219-.96875 10.785156-.96875 16.109375 0 .320312.058593.640625.089843.960938.152343 2.449218.476563 4.855468 1.144532 7.199218 1.992188l1.191406.441406c2.25.878906 4.429688 1.925782 6.523438 3.136719.359375.207031.703125.421875 1.054688.640625 2.085937 1.265625 4.074218 2.6875 5.945312 4.253906.214844.175782.40625.375.621094.570313 1.902344 1.644531 3.671875 3.433593 5.289062 5.359375zm0 0"/><path d="m408.480469 81.503906-43.527344-33.488281c-83.210937-63.847656-198.878906-64.039063-282.296875-.464844l-44.441406 33.953125zm0 0"/><path d="m431.007812 145.503906h-414.015624l20.703124 176h372.609376zm-319.007812 136c0 4.417969-3.582031 8-8 8s-8-3.582031-8-8v-96c0-4.417968 3.582031-8 8-8s8 3.582032 8 8zm80 0c0 4.417969-3.582031 8-8 8s-8-3.582031-8-8v-96c0-4.417968 3.582031-8 8-8s8 3.582032 8 8zm80 0c0 4.417969-3.582031 8-8 8s-8-3.582031-8-8v-96c0-4.417968 3.582031-8 8-8s8 3.582032 8 8zm80 0c0 4.417969-3.582031 8-8 8s-8-3.582031-8-8v-96c0-4.417968 3.582031-8 8-8s8 3.582032 8 8zm0 0"/><path d="m0 97.503906h448v32h-448zm0 0"/></svg>