<svg height="464pt" viewBox="-8 0 464 464" width="464pt" xmlns="http://www.w3.org/2000/svg"><path d="m440.984375 256-200.105469-156.929688c10.882813-6.734374 16.691406-19.316406 14.753906-31.964843-1.933593-12.652344-11.234374-22.921875-23.632812-26.097657v-25.007812h48c4.417969 0 8-3.582031 8-8s-3.582031-8-8-8h-112c-4.417969 0-8 3.582031-8 8s3.582031 8 8 8h48v32c0 4.417969 3.582031 8 8 8 8.835938 0 16 7.164062 16 16s-7.164062 16-16 16-16-7.164062-16-16c0-4.417969-3.582031-8-8-8s-8 3.582031-8 8c.023438 11.015625 5.722656 21.238281 15.078125 27.046875l-201.101563 156.953125h-5.976562v208h448v-208zm-216.984375-149.839844 191.046875 149.839844h-383.046875zm-152 333.839844c0 4.417969-3.582031 8-8 8s-8-3.582031-8-8v-160c0-4.417969 3.582031-8 8-8s8 3.582031 8 8zm64 0c0 4.417969-3.582031 8-8 8s-8-3.582031-8-8v-160c0-4.417969 3.582031-8 8-8s8 3.582031 8 8zm64 0c0 4.417969-3.582031 8-8 8s-8-3.582031-8-8v-160c0-4.417969 3.582031-8 8-8s8 3.582031 8 8zm64 0c0 4.417969-3.582031 8-8 8s-8-3.582031-8-8v-160c0-4.417969 3.582031-8 8-8s8 3.582031 8 8zm64 0c0 4.417969-3.582031 8-8 8s-8-3.582031-8-8v-160c0-4.417969 3.582031-8 8-8s8 3.582031 8 8zm64 0c0 4.417969-3.582031 8-8 8s-8-3.582031-8-8v-160c0-4.417969 3.582031-8 8-8s8 3.582031 8 8zm0 0"/></svg>