<svg height="448pt" viewBox="0 0 448 448" width="448pt" xmlns="http://www.w3.org/2000/svg"><path d="m280 408c0 8.835938-7.164062 16-16 16s-16-7.164062-16-16 7.164062-16 16-16 16 7.164062 16 16zm0 0"/><path d="m352 408c0 8.835938-7.164062 16-16 16s-16-7.164062-16-16 7.164062-16 16-16 16 7.164062 16 16zm0 0"/><path d="m56 408c0 8.835938-7.164062 16-16 16s-16-7.164062-16-16 7.164062-16 16-16 16 7.164062 16 16zm0 0"/><path d="m424 408c0 8.835938-7.164062 16-16 16s-16-7.164062-16-16 7.164062-16 16-16 16 7.164062 16 16zm0 0"/><path d="m200 408c0 8.835938-7.164062 16-16 16s-16-7.164062-16-16 7.164062-16 16-16 16 7.164062 16 16zm0 0"/><path d="m128 408c0 8.835938-7.164062 16-16 16s-16-7.164062-16-16 7.164062-16 16-16 16 7.164062 16 16zm0 0"/><path d="m184 272h80v80h-80zm0 0"/><path d="m48 272h80v80h-80zm0 0"/><path d="m408 368h-368c-22.089844 0-40 17.910156-40 40s17.910156 40 40 40h368c22.089844 0 40-17.910156 40-40s-17.910156-40-40-40zm-368 72c-17.671875 0-32-14.328125-32-32s14.328125-32 32-32 32 14.328125 32 32-14.328125 32-32 32zm72 0c-17.671875 0-32-14.328125-32-32s14.328125-32 32-32 32 14.328125 32 32-14.328125 32-32 32zm72 0c-17.671875 0-32-14.328125-32-32s14.328125-32 32-32 32 14.328125 32 32-14.328125 32-32 32zm80 0c-17.671875 0-32-14.328125-32-32s14.328125-32 32-32 32 14.328125 32 32-14.328125 32-32 32zm72 0c-17.671875 0-32-14.328125-32-32s14.328125-32 32-32 32 14.328125 32 32-14.328125 32-32 32zm72 0c-17.671875 0-32-14.328125-32-32s14.328125-32 32-32 32 14.328125 32 32-14.328125 32-32 32zm0 0"/><path d="m320 272h80v80h-80zm0 0"/><path d="m104 80c0 4.417969-3.582031 8-8 8s-8-3.582031-8-8 3.582031-8 8-8 8 3.582031 8 8zm0 0"/><path d="m328.734375 73.449219c.105469-.480469.160156-.96875.28125-1.449219h-177.601563c.769532 5.304688.769532 10.695312 0 16h177.601563c-.121094-.472656-.175781-.960938-.273437-1.433594-.09375-.46875-.191407-.894531-.261719-1.359375-.636719-3.4375-.636719-6.960937 0-10.398437.070312-.480469.160156-.914063.253906-1.359375zm0 0"/><path d="m120 29.390625v-29.390625h-48v29.390625c15.191406-7.1875 32.808594-7.1875 48 0zm0 0"/><path d="m136 80c.007812-4.519531-.773438-9.007812-2.3125-13.257812-2.882812-8.214844-8.371094-15.269532-15.632812-20.078126-.222657-.144531-.460938-.25-.679688-.390624-13.308594-8.292969-30.210938-8.152344-43.382812.359374-14.589844 9.5625-21.300782 27.476563-16.582032 44.273438 4.71875 16.792969 19.777344 28.59375 37.214844 29.160156 17.4375.5625 33.226562-10.238281 39.023438-26.691406 1.558593-4.285156 2.355468-8.8125 2.351562-13.375zm-40 24c-13.253906 0-24-10.746094-24-24s10.746094-24 24-24 24 10.746094 24 24-10.746094 24-24 24zm0 0"/><path d="m360 96c8.835938 0 16-7.164062 16-16s-7.164062-16-16-16c-4.511719-.039062-8.824219 1.878906-11.816406 5.257812-5.546875 6.03125-5.582032 15.296876-.085938 21.375 2.992188 3.4375 7.339844 5.398438 11.902344 5.367188zm0 0"/><path d="m368 176.800781v-65.929687c-5.226562 1.503906-10.773438 1.503906-16 0v65.929687c-18.613281 3.828125-31.976562 20.199219-32 39.199219 0 4.417969 3.582031 8 8 8s8-3.582031 8-8c0-13.253906 10.746094-24 24-24s24 10.746094 24 24c0 4.417969 3.582031 8 8 8s8-3.582031 8-8c-.023438-19-13.386719-35.371094-32-39.199219zm0 0"/></svg>