<svg height="448pt" viewBox="0 -68 448.32884 448" width="448pt" xmlns="http://www.w3.org/2000/svg"><path d="m32 140.070312v4.09375h64v-32h-48.488281zm0 0"/><path d="m240.664062 272.164062h-129.328124c.046874.273438 0 .542969.0625.800782.800781 4.765625.800781 9.632812 0 14.398437 0 .265625 0 .539063-.0625.800781h129.328124c-.046874-.273437 0-.542968-.0625-.800781-.800781-4.765625-.800781-9.632812 0-14.398437.039063-.273438.023438-.542969.0625-.800782zm0 0"/><path d="m16.664062 272.164062h-16.664062v16h16.664062c-.046874-.273437 0-.542968-.0625-.800781-.800781-4.765625-.800781-9.632812 0-14.398437.039063-.273438.023438-.542969.0625-.800782zm0 0"/><path d="m64 248.164062c-12.722656.050782-24.226562 7.570313-29.375 19.199219-3.511719 8.203125-3.511719 17.480469 0 25.679688 5.132812 11.640625 16.660156 19.148437 29.382812 19.136719 12.722657-.011719 24.234376-7.535157 29.351563-19.183594 3.492187-8.175782 3.492187-17.421875 0-25.601563-5.136719-11.636719-16.636719-19.167969-29.359375-19.230469zm0 48c-8.835938 0-16-7.164062-16-16 0-8.835937 7.164062-16 16-16s16 7.164063 16 16c0 8.835938-7.164062 16-16 16zm0 0"/><path d="m404.800781 250.859375c-.097656-.039063-.191406-.054687-.289062-.085937-8.078125-3.472657-17.234375-3.449219-25.296875.070312-16.195313 7.097656-23.613282 25.953125-16.589844 42.183594 5.132812 11.640625 16.660156 19.144531 29.382812 19.136718 12.722657-.011718 24.234376-7.535156 29.351563-19.183593 3.414063-7.777344 3.585937-16.597657.476563-24.503907-3.109376-7.902343-9.238282-14.246093-17.035157-17.617187zm-12.800781 45.304687c-8.835938 0-16-7.164062-16-16 0-8.835937 7.164062-16 16-16s16 7.164063 16 16c0 8.835938-7.164062 16-16 16zm0 0"/><path d="m439.398438 272.964844c.800781 4.765625.800781 9.632812 0 14.398437 0 .265625 0 .539063-.0625.800781h8.664062v-16h-8.664062c.046874.273438.023437.542969.0625.800782zm0 0"/><path d="m344.664062 272.164062h-9.328124c.046874.273438 0 .542969.0625.800782.800781 4.765625.800781 9.632812 0 14.398437 0 .265625 0 .539063-.0625.800781h9.328124c-.046874-.273437 0-.542968-.0625-.800781-.800781-4.765625-.800781-9.632812 0-14.398437.039063-.273438.023438-.542969.0625-.800782zm0 0"/><path d="m288 248.164062c-12.722656.050782-24.226562 7.570313-29.375 19.199219-3.511719 8.203125-3.511719 17.480469 0 25.679688 5.132812 11.640625 16.660156 19.148437 29.382812 19.136719 12.722657-.011719 24.234376-7.535157 29.351563-19.183594 3.511719-8.199219 3.511719-17.480469 0-25.679688-5.152344-11.617187-16.652344-19.117187-29.359375-19.152344zm0 48c-8.835938 0-16-7.164062-16-16 0-8.835937 7.164062-16 16-16s16 7.164063 16 16c0 8.835938-7.164062 16-16 16zm0 0"/><path d="m128 192.164062h-128v64h22.398438c.167968-.296874.386718-.550781.5625-.800781.398437-.65625.847656-1.261719 1.277343-1.894531.800781-1.242188 1.707031-2.449219 2.648438-3.601562.503906-.605469 1.035156-1.183594 1.601562-1.757813.96875-1.074219 1.96875-2.097656 3.015625-3.074219.601563-.550781 1.214844-1.078125 1.839844-1.597656 1.066406-.890625 2.167969-1.730469 3.304688-2.519531.695312-.480469 1.382812-.953125 2.09375-1.402344 1.160156-.71875 2.355468-1.367187 3.570312-1.984375.75-.382812 1.503906-.800781 2.28125-1.136719 1.261719-.558593 2.558594-1.023437 3.871094-1.476562.800781-.265625 1.542968-.570313 2.34375-.800781 1.4375-.417969 2.917968-.710938 4.40625-.992188.707031-.128906 1.386718-.320312 2.097656-.425781 4.457031-.660157 8.988281-.660157 13.449219 0 .726562.105469 1.421875.296875 2.140625.433593 1.464844.28125 2.929687.566407 4.363281.976563.796875.238281 1.597656.550781 2.398437.800781 1.28125.4375 2.542969.894532 3.777344 1.4375.796875.367188 1.597656.800782 2.398438 1.199219 1.152344.59375 2.289062 1.203125 3.390625 1.882813.800781.488281 1.539062 1.007812 2.296875 1.535156 1.039062.734375 2.058594 1.496094 3.039062 2.3125.722656.589844 1.425782 1.199218 2.105469 1.839844.9375.871093 1.824219 1.785156 2.695313 2.726562.632812.6875 1.257812 1.375 1.847656 2.097656.800781 1.015625 1.601562 2.085938 2.34375 3.199219.519531.75 1.058594 1.488281 1.539062 2.28125.160156.261719.359375.503906.519532.796875h22.382812zm0 0"/><path d="m224 88.164062h48v16h-48zm0 0"/><path d="m224 56.164062h48v16h-48zm0 0"/><path d="m434.230469 32.164062h-146.230469v96c0 4.417969-3.582031 8-8 8s-8-3.582031-8-8v-8h-48v8c0 4.417969-3.582031 8-8 8s-8-3.582031-8-8v-96h-18.230469c-18.796875 57.160157-18.796875 118.839844 0 176h244.460938c18.796875-57.160156 18.796875-118.839843 0-176zm0 0"/><path d="m392 232.164062c.257812 0 .496094.054688.742188.0625 2.027343.042969 4.050781.210938 6.058593.503907.398438.058593.800781 0 1.199219.097656v-8.664063h-16v8.664063c.375-.0625.800781 0 1.160156-.097656 2.03125-.296875 4.078125-.46875 6.128906-.511719.238282 0 .472657-.054688.710938-.054688zm0 0"/><path d="m224 40.164062h48v-16h-48zm0 0"/><path d="m128 80.164062h-99.296875l-28.703125 51.601563v44.398437h128zm-16 72c0 4.417969-3.582031 8-8 8h-80c-4.417969 0-8-3.582031-8-8v-14.167968c0-1.363282.34375-2.703125 1.007812-3.894532l18.816407-33.824218c1.410156-2.539063 4.085937-4.113282 6.992187-4.113282h61.183594c4.417969 0 8 3.582032 8 8zm0 0"/><path d="m224 224.164062h16v32h-16zm0 0"/><path d="m224 8.164062c0-4.417968-3.582031-8-8-8s-8 3.582032-8 8v16h16zm0 0"/><path d="m288 8.164062c0-4.417968-3.582031-8-8-8s-8 3.582032-8 8v16h16zm0 0"/></svg>