<svg height="472pt" viewBox="0 -2 472 472" width="472pt" xmlns="http://www.w3.org/2000/svg"><path d="m40 123.902344h224v-80h-224zm176-64c0-4.417969 3.582031-8 8-8s8 3.582031 8 8v48c0 4.417968-3.582031 8-8 8s-8-3.582032-8-8zm-48 0c0-4.417969 3.582031-8 8-8s8 3.582031 8 8v48c0 4.417968-3.582031 8-8 8s-8-3.582032-8-8zm-48 0c0-4.417969 3.582031-8 8-8s8 3.582031 8 8v48c0 4.417968-3.582031 8-8 8s-8-3.582032-8-8zm-48 0c0-4.417969 3.582031-8 8-8s8 3.582031 8 8v48c0 4.417968-3.582031 8-8 8s-8-3.582032-8-8zm0 0"/><path d="m92.609375 363.902344h118.78125l9-144h-136.78125zm0 0"/><path d="m377.871094 364.023438c10.160156 10.109374 23.890625 15.8125 38.226562 15.878906h1.34375c30.34375-.824219 54.527344-25.644532 54.558594-56v-240c0-2.121094-.84375-4.15625-2.34375-5.65625l-76-76c-3.140625-3.03125-8.128906-2.988282-11.214844.097656-3.085937 3.085938-3.128906 8.074219-.097656 11.214844l41.65625 41.65625v84.6875h32v184c-.03125 21.675781-17.292969 39.398437-38.960938 40-10.488281.207031-20.605468-3.882813-28-11.320313-8.285156-8.070312-12.984374-19.128906-13.039062-30.695312v-53.984375c-.027344-22.082032-17.917969-39.972656-40-40h-60l4-64h24v-160h-304v160h24l16 256h-40v48h464v-48h-200l11-176h61c13.253906 0 24 10.746094 24 24v53.984375c.074219 15.871093 6.511719 31.050781 17.871094 42.136719zm-150.984375 8.375c-.261719 4.222656-3.765625 7.511718-8 7.503906h-133.789063c-4.234375.007812-7.738281-3.28125-8-7.503906l-10-160c-.140625-2.207032.644532-4.371094 2.160156-5.980469 1.515626-1.609375 3.628907-2.519531 5.839844-2.515625h153.804688c2.210937-.003906 4.324218.90625 5.839844 2.515625 1.515624 1.609375 2.300781 3.773437 2.160156 5.980469zm-194.886719-232.496094c-4.417969 0-8-3.582032-8-8v-96c0-4.417969 3.582031-8 8-8h240c4.417969 0 8 3.582031 8 8v96c0 4.417968-3.582031 8-8 8zm0 0"/></svg>