<svg height="448pt" viewBox="0 -68 448.65767 448" width="448pt" xmlns="http://www.w3.org/2000/svg"><path d="m368.328125 224.328125h-288v14.664063c8.832031 5.046874 15.835937 12.769531 20 22.046874 7.277344-16.554687 23.242187-27.617187 41.300781-28.609374 18.058594-.996094 35.144532 8.242187 44.195313 23.898437h77.023437c9.054688-15.652344 26.136719-24.886719 44.191406-23.890625 18.054688.992188 34.019532 12.050781 41.296876 28.601562 4.171874-9.269531 11.167968-16.984374 19.992187-22.039062zm0 0"/><path d="m64.328125 40.328125h48v-16h-48zm0 0"/><path d="m64.328125 88.328125h48v16h-48zm0 0"/><path d="m64.328125 56.328125h48v16h-48zm0 0"/><path d="m336.328125 8.328125h48v8h-48zm0 0"/><path d="m439.730469 273.128906c.800781 4.765625.800781 9.632813 0 14.398438 0 .265625 0 .539062-.066407.800781h8.664063v-16h-8.664063c.046876.273437.023438.542969.066407.800781zm0 0"/><path d="m405.128906 251.023438c-.097656-.039063-.191406-.054688-.289062-.085938-8.078125-3.472656-17.234375-3.449219-25.296875.070312-16.195313 7.097657-23.613281 25.953126-16.589844 42.183594 5.136719 11.640625 16.660156 19.148438 29.382813 19.136719 12.722656-.011719 24.238281-7.535156 29.351562-19.183594 3.414062-7.777343 3.585938-16.597656.476562-24.5-3.109374-7.90625-9.238281-14.246093-17.035156-17.621093zm-12.800781 45.304687c-8.835937 0-16-7.164063-16-16s7.164063-16 16-16 16 7.164063 16 16-7.164063 16-16 16zm0 0"/><path d="m8.992188 272.328125h-8.664063v16h8.664063c-.046876-.269531 0-.542969-.0625-.800781-.800782-4.765625-.800782-9.632813 0-14.398438.039062-.273437.023437-.542968.0625-.800781zm0 0"/><path d="m392.328125 232.328125c.257813 0 .496094.058594.746094.066406 2.027343.039063 4.046875.207031 6.054687.503907.398438.054687.800782 0 1.199219.09375v-8.664063h-16v8.664063c.375-.0625.800781 0 1.160156-.09375 2.03125-.300782 4.078125-.472657 6.128907-.511719.238281 0 .472656-.058594.710937-.058594zm0 0"/><path d="m434.5625 32.328125h-306.234375v96c0 4.417969-3.582031 8-8 8s-8-3.582031-8-8v-8h-48v8c0 4.417969-3.582031 8-8 8s-8-3.582031-8-8v-96h-34.230469c-18.796875 57.160156-18.796875 118.839844 0 176h420.464844c18.792969-57.160156 18.792969-118.839844 0-176zm0 0"/><path d="m56.328125 232.328125c.257813 0 .496094.058594.746094.066406 2.027343.039063 4.046875.207031 6.054687.503907.398438.054687.800782 0 1.199219.09375v-8.664063h-16v8.664063c.375-.0625.800781 0 1.160156-.09375 2.03125-.300782 4.078125-.472657 6.128907-.511719.238281 0 .472656-.058594.710937-.058594zm0 0"/><path d="m69.128906 251.023438c-.097656-.039063-.191406-.054688-.289062-.085938-8.078125-3.472656-17.234375-3.449219-25.296875.070312-16.191407 7.105469-23.597657 25.957032-16.574219 42.183594 5.144531 11.648438 16.683594 19.15625 29.417969 19.132813 12.734375-.023438 24.25-7.570313 29.351562-19.234375 3.386719-7.78125 3.539063-16.585938.421875-24.480469-3.113281-7.890625-9.242187-14.21875-17.03125-17.585937zm-12.800781 45.304687c-8.835937 0-16-7.164063-16-16s7.164063-16 16-16 16 7.164063 16 16-7.164063 16-16 16zm0 0"/><path d="m256.992188 272.328125h-65.328126c.046876.273437 0 .542969.066407.800781.800781 4.765625.800781 9.632813 0 14.398438 0 .265625 0 .539062-.066407.800781h65.328126c-.046876-.269531 0-.542969-.0625-.800781-.800782-4.765625-.800782-9.632813 0-14.398438.039062-.273437.023437-.542968.0625-.800781zm0 0"/><path d="m304.328125 248.328125c-12.71875.050781-24.222656 7.570313-29.375 19.199219-3.511719 8.203125-3.511719 17.480468 0 25.679687 5.144531 11.648438 16.683594 19.15625 29.417969 19.132813 12.730468-.023438 24.246094-7.570313 29.351562-19.234375 3.464844-8.183594 3.445313-17.429688-.050781-25.601563-5.140625-11.617187-16.636719-19.128906-29.34375-19.175781zm0 48c-8.835937 0-16-7.164063-16-16s7.164063-16 16-16 16 7.164063 16 16-7.164063 16-16 16zm0 0"/><path d="m144.328125 248.328125c-8.5-.046875-16.667969 3.308594-22.679687 9.320313-6.011719 6.011718-9.367188 14.179687-9.320313 22.679687 0 4.421875.898437 8.800781 2.640625 12.863281 5.136719 11.640625 16.660156 19.148438 29.382812 19.136719 12.722657-.011719 24.238282-7.535156 29.351563-19.183594 3.511719-8.199219 3.511719-17.480469 0-25.679687-5.160156-11.613282-16.664063-19.109375-29.375-19.136719zm0 48c-8.835937 0-16-7.164063-16-16s7.164063-16 16-16 16 7.164063 16 16-7.164063 16-16 16zm0 0"/><path d="m64.328125 8.328125c0-4.417969-3.582031-8-8-8s-8 3.582031-8 8v16h16zm0 0"/><path d="m128.328125 8.328125c0-4.417969-3.582031-8-8-8s-8 3.582031-8 8v16h16zm0 0"/></svg>