<svg height="448pt" viewBox="0 0 448 448" width="448pt" xmlns="http://www.w3.org/2000/svg"><path d="m64 224c-.011719 10.304688.976562 20.589844 2.945312 30.703125l78.976563-30.703125-78.976563-30.703125c-1.96875 10.113281-2.957031 20.398437-2.945312 30.703125zm0 0"/><path d="m110.863281 337.144531c7.277344 7.304688 15.246094 13.886719 23.792969 19.65625l34.144531-77.601562-77.601562 34.144531c5.769531 8.550781 12.355469 16.523438 19.664062 23.800781zm0 0"/><path d="m134.65625 91.199219c-17.132812 11.570312-31.886719 26.324219-43.457031 43.457031l77.601562 34.144531zm0 0"/><path d="m193.296875 381.054688c20.28125 3.921874 41.125 3.921874 61.40625 0l-30.703125-78.976563zm0 0"/><path d="m254.703125 66.945312c-20.28125-3.921874-41.125-3.921874-61.40625 0l30.703125 78.976563zm0 0"/><path d="m337.136719 110.855469c-7.277344-7.304688-15.246094-13.886719-23.792969-19.65625l-34.144531 77.601562 77.601562-34.144531c-5.769531-8.550781-12.355469-16.523438-19.664062-23.800781zm0 0"/><path d="m240 224c0 8.835938-7.164062 16-16 16s-16-7.164062-16-16 7.164062-16 16-16 16 7.164062 16 16zm0 0"/><path d="m313.34375 356.800781c17.132812-11.570312 31.886719-26.324219 43.457031-43.457031l-77.601562-34.144531zm0 0"/><path d="m302.078125 224 78.976563 30.703125c3.925781-20.28125 3.925781-41.125 0-61.40625zm0 0"/><path d="m448 240v-32h-17.359375c-4.058594 0-7.472656-3.039062-7.945313-7.070312-2.253906-19.410157-7.332031-38.382813-15.078124-56.320313-1.613282-3.730469-.171876-8.078125 3.351562-10.105469l14.984375-8.640625-16-27.726562-15.074219 8.710937c-3.515625 2.015625-7.980468 1.085938-10.398437-2.167968-11.601563-15.671876-25.460938-29.53125-41.128907-41.136719-3.25-2.417969-4.183593-6.882813-2.167968-10.398438l8.710937-15.066406-27.726562-16-8.679688 14.960937c-2.03125 3.519532-6.375 4.957032-10.105469 3.34375-17.929687-7.75-36.902343-12.832031-56.3125-15.078124-4.03125-.472657-7.070312-3.886719-7.070312-7.945313v-17.359375h-32v17.359375c0 4.058594-3.039062 7.472656-7.070312 7.945313-19.410157 2.246093-38.382813 7.328124-56.3125 15.078124-3.730469 1.613282-8.074219.175782-10.105469-3.34375l-8.648438-14.992187-27.726562 16 8.710937 15.066406c2.015625 3.515625 1.085938 7.980469-2.167968 10.398438-15.667969 11.601562-29.527344 25.464843-41.128907 41.136719-2.417969 3.25-6.882812 4.183593-10.398437 2.167968l-15.105469-8.679687-16 27.726562 14.984375 8.640625c3.523438 2.027344 4.964844 6.375 3.351562 10.105469-7.746093 17.9375-12.824218 36.910156-15.078124 56.320313-.472657 4.03125-3.886719 7.070312-7.945313 7.070312h-17.359375v32h17.359375c4.058594 0 7.472656 3.039062 7.945313 7.070312 2.253906 19.410157 7.332031 38.382813 15.078124 56.320313 1.613282 3.730469.171876 8.078125-3.351562 10.105469l-14.984375 8.640625 16 27.726562 15.074219-8.710937c3.515625-2.015625 7.980468-1.085938 10.398437 2.167968 11.601563 15.671876 25.460938 29.53125 41.128907 41.136719 3.25 2.417969 4.183593 6.882813 2.167968 10.398438l-8.710937 15.066406 27.726562 16 8.648438-14.992187c2.03125-3.519532 6.375-4.957032 10.105469-3.34375 17.929687 7.75 36.902343 12.832031 56.308593 15.078124 4.058594.457032 7.117188 3.894532 7.105469 7.976563v17.359375h32v-17.359375c0-4.058594 3.039062-7.472656 7.070312-7.945313 19.410157-2.246093 38.382813-7.328124 56.3125-15.078124 3.730469-1.613282 8.074219-.175782 10.105469 3.34375l8.648438 14.992187 27.726562-16-8.710937-15.066406c-2.015625-3.515625-1.085938-7.980469 2.167968-10.398438 15.667969-11.601562 29.527344-25.464843 41.128907-41.136719 2.417969-3.25 6.882812-4.183593 10.398437-2.167968l15.074219 8.710937 16-27.726562-14.984375-8.640625c-3.523438-2.027344-4.964844-6.371094-3.351562-10.101563 7.746093-17.9375 12.824218-36.914062 15.078124-56.320312.457032-4.058594 3.894532-7.117188 7.976563-7.105469zm-140.695312-168.097656c2.175781-.695313 4.542968-.429688 6.511718.730468 25.339844 15.046876 46.503906 36.210938 61.550782 61.550782 1.160156 1.96875 1.417968 4.339844.71875 6.511718-.703126 2.175782-2.300782 3.945313-4.390626 4.863282l-104.871093 46.160156c-3.023438 1.332031-6.550781.671875-8.882813-1.664062-2.335937-2.335938-2.996094-5.867188-1.660156-8.886719l46.160156-104.871094c.917969-2.09375 2.6875-3.691406 4.863282-4.394531zm-51.304688 152.097656c0 17.671875-14.328125 32-32 32s-32-14.328125-32-32 14.328125-32 32-32 32 14.328125 32 32zm-80.640625-166.449219c1.042969-2.027343 2.902344-3.515625 5.113281-4.085937 28.5625-7.257813 58.492188-7.257813 87.054688 0 2.210937.574218 4.070312 2.0625 5.113281 4.097656 1.039063 2.03125 1.164063 4.414062.335937 6.542969l-41.519531 106.789062c-1.195312 3.078125-4.15625 5.101563-7.457031 5.101563s-6.261719-2.023438-7.457031-5.101563l-41.519531-106.789062c-.828126-2.132813-.707032-4.519531.335937-6.554688zm-102.726563 76.632813c15.046876-25.339844 36.210938-46.503906 61.550782-61.550782 1.96875-1.160156 4.335937-1.421874 6.511718-.722656 2.171876.703125 3.941407 2.296875 4.863282 4.386719l46.160156 104.871094c1.335938 3.019531.675781 6.550781-1.660156 8.886719-2.332032 2.335937-5.859375 2.996093-8.882813 1.664062l-104.871093-46.117188c-2.089844-.921874-3.6875-2.691406-4.390626-4.867187-.699218-2.171875-.441406-4.542969.71875-6.511719zm-11.433593 139.335937c-3.644531 0-6.828125-2.464843-7.742188-5.992187-7.277343-28.5625-7.277343-58.492188 0-87.054688.574219-2.210937 2.0625-4.070312 4.097657-5.113281 2.03125-1.039063 4.414062-1.164063 6.542968-.335937l106.796875 41.519531c3.078125 1.195312 5.101563 4.15625 5.101563 7.457031s-2.023438 6.261719-5.101563 7.457031l-106.796875 41.519531c-.925781.359376-1.90625.546876-2.898437.542969zm79.496093 102.578125c-.792968.253906-1.621093.382813-2.457031.382813-1.425781-.003907-2.824219-.386719-4.054687-1.113281-25.339844-15.046876-46.503906-36.210938-61.550782-61.550782-1.160156-1.96875-1.417968-4.339844-.71875-6.511718.703126-2.175782 2.300782-3.945313 4.390626-4.863282l104.871093-46.160156c3.023438-1.332031 6.550781-.671875 8.882813 1.664062 2.335937 2.335938 2.996094 5.867188 1.660156 8.886719l-46.117188 104.871094c-.929687 2.101563-2.714843 3.699219-4.90625 4.394531zm131.945313 14.351563c-1.042969 2.027343-2.902344 3.515625-5.113281 4.085937-28.5625 7.285156-58.492188 7.285156-87.054688 0-2.210937-.574218-4.070312-2.0625-5.113281-4.097656-1.039063-2.03125-1.164063-4.414062-.335937-6.542969l41.519531-106.789062c1.195312-3.078125 4.15625-5.101563 7.457031-5.101563s6.261719 2.023438 7.457031 5.101563l41.519531 106.789062c.828126 2.132813.707032 4.519531-.335937 6.554688zm102.726563-76.632813c-15.046876 25.339844-36.210938 46.503906-61.550782 61.550782-1.230468.726562-2.628906 1.109374-4.054687 1.113281-.835938 0-1.664063-.128907-2.457031-.382813-2.175782-.703125-3.945313-2.300781-4.863282-4.394531l-46.160156-104.871094c-1.335938-3.019531-.675781-6.550781 1.660156-8.886719 2.332032-2.335937 5.859375-2.996093 8.882813-1.664062l104.871093 46.160156c2.089844.917969 3.6875 2.6875 4.390626 4.863282.699218 2.171874.441406 4.542968-.71875 6.511718zm19.199218-46.289062c-.914062 3.527344-4.097656 5.992187-7.742187 5.992187-.992188.003907-1.972657-.183593-2.894531-.542969l-106.800782-41.519531c-3.074218-1.195312-5.101562-4.15625-5.101562-7.457031s2.027344-6.261719 5.101562-7.457031l106.800782-41.519531c2.128906-.828126 4.507812-.703126 6.539062.335937 2.035156 1.042969 3.527344 2.902344 4.097656 5.113281 7.277344 28.5625 7.277344 58.492188 0 87.054688zm0 0"/></svg>