<svg height="448pt" viewBox="0 0 448 448" width="448pt" xmlns="http://www.w3.org/2000/svg"><path d="m160 336c0 26.507812-21.492188 48-48 48s-48-21.492188-48-48 21.492188-48 48-48 48 21.492188 48 48zm0 0"/><path d="m224 352v-32h-19.039062c-3.65625 0-6.851563-2.480469-7.753907-6.023438-2.019531-7.972656-5.175781-15.613281-9.367187-22.6875-1.867188-3.148437-1.363282-7.160156 1.222656-9.746093l13.464844-13.464844-22.605469-22.605469-13.464844 13.464844c-2.585937 2.585938-6.597656 3.089844-9.746093 1.222656-7.074219-4.191406-14.714844-7.347656-22.6875-9.367187-3.542969-.902344-6.023438-4.097657-6.023438-7.753907v-19.039062h-32v19.039062c0 3.65625-2.480469 6.851563-6.023438 7.753907-7.972656 2.019531-15.613281 5.175781-22.6875 9.367187-3.148437 1.867188-7.160156 1.363282-9.746093-1.222656l-13.464844-13.464844-22.605469 22.605469 13.464844 13.464844c2.585938 2.585937 3.089844 6.597656 1.222656 9.746093-4.191406 7.074219-7.347656 14.714844-9.367187 22.6875-.902344 3.542969-4.097657 6.023438-7.753907 6.023438h-19.039062v32h19.039062c3.65625 0 6.851563 2.480469 7.753907 6.023438 2.019531 7.972656 5.175781 15.613281 9.367187 22.6875 1.867188 3.148437 1.363282 7.160156-1.222656 9.746093l-13.464844 13.464844 22.605469 22.605469 13.464844-13.464844c2.585937-2.585938 6.597656-3.089844 9.746093-1.222656 7.074219 4.191406 14.714844 7.347656 22.6875 9.367187 3.542969.902344 6.023438 4.097657 6.023438 7.753907v19.039062h32v-19.039062c0-3.65625 2.480469-6.851563 6.023438-7.753907 7.972656-2.019531 15.613281-5.175781 22.6875-9.367187 3.148437-1.867188 7.160156-1.363282 9.746093 1.222656l13.464844 13.464844 22.605469-22.605469-13.464844-13.464844c-2.585938-2.585937-3.089844-6.597656-1.222656-9.746093 4.191406-7.074219 7.347656-14.714844 9.367187-22.6875.902344-3.542969 4.097657-6.023438 7.753907-6.023438zm-112 48c-35.347656 0-64-28.652344-64-64s28.652344-64 64-64 64 28.652344 64 64c-.039062 35.328125-28.671875 63.960938-64 64zm0 0"/><path d="m420.246094 269.464844c1.09375-3.265625 4.152344-5.46875 7.59375-5.464844h20.160156v-32h-20.160156c-3.441406.003906-6.5-2.199219-7.59375-5.464844-.660156-2.050781-1.460938-4.058594-2.398438-6-1.539062-3.082031-.929687-6.804687 1.511719-9.238281l14.234375-14.183594-22.664062-22.664062-14.1875 14.230469c-2.429688 2.441406-6.152344 3.050781-9.238282 1.511718-1.941406-.9375-3.945312-1.738281-6-2.398437-3.292968-1.082031-5.515625-4.164063-5.503906-7.632813v-20.160156h-32v20.160156c.003906 3.441406-2.199219 6.5-5.464844 7.59375-2.050781.660156-4.058594 1.460938-6 2.398438-3.082031 1.539062-6.804687.929687-9.238281-1.511719l-14.183594-14.234375-22.664062 22.664062 14.230469 14.1875c2.441406 2.429688 3.050781 6.152344 1.511718 9.238282-.9375 1.941406-1.738281 3.945312-2.398437 6-1.082031 3.292968-4.164063 5.515625-7.632813 5.503906h-20.160156v32h20.160156c3.441406-.003906 6.5 2.199219 7.59375 5.464844.660156 2.050781 1.460938 4.058594 2.398438 6 1.539062 3.082031.929687 6.804687-1.511719 9.238281l-14.234375 14.183594 22.664062 22.664062 14.1875-14.230469c2.421876-2.457031 6.15625-3.066406 9.238282-1.511718 1.941406.9375 3.945312 1.738281 6 2.398437 3.292968 1.082031 5.515625 4.164063 5.503906 7.632813v20.160156h32v-20.160156c-.003906-3.441406 2.199219-6.5 5.464844-7.59375 2.050781-.660156 4.058594-1.460938 6-2.398438 3.082031-1.539062 6.804687-.929687 9.238281 1.511719l14.183594 14.234375 22.664062-22.664062-14.230469-14.1875c-2.441406-2.429688-3.050781-6.152344-1.511718-9.238282.953125-1.953125 1.765625-3.972656 2.4375-6.039062zm-60.246094 26.535156c-26.507812 0-48-21.492188-48-48s21.492188-48 48-48 48 21.492188 48 48c-.027344 26.5-21.5 47.972656-48 48zm0 0"/><path d="m392 248c0 17.671875-14.328125 32-32 32s-32-14.328125-32-32 14.328125-32 32-32 32 14.328125 32 32zm0 0"/><path d="m200 72c0 8.835938-7.164062 16-16 16s-16-7.164062-16-16 7.164062-16 16-16 16 7.164062 16 16zm0 0"/><path d="m256 64h-18.320312c-3.519532.003906-6.628907-2.296875-7.65625-5.664062-.9375-3.164063-2.195313-6.226563-3.757813-9.136719-1.707031-3.117188-1.152344-6.984375 1.359375-9.496094l12.984375-12.984375-11.3125-11.320312-12.914063 12.960937c-2.566406 2.484375-6.4375 3.039063-9.597656 1.375-2.910156-1.5625-5.972656-2.820313-9.136718-3.757813-3.359376-1.035156-5.652344-4.140624-5.648438-7.65625v-18.320312h-16v18.320312c.003906 3.519532-2.296875 6.628907-5.664062 7.65625-3.164063.9375-6.226563 2.195313-9.136719 3.757813-3.160157 1.664063-7.03125 1.109375-9.597657-1.375l-12.914062-12.960937-11.296875 11.320312 12.984375 12.984375c2.511719 2.511719 3.066406 6.378906 1.359375 9.496094-1.5625 2.910156-2.820313 5.972656-3.757813 9.136719-1.027343 3.367187-4.136718 5.667968-7.65625 5.664062h-18.320312v16h18.320312c3.519532-.003906 6.628907 2.296875 7.65625 5.664062.9375 3.164063 2.195313 6.226563 3.757813 9.136719.648437 1.175781.984375 2.496094.984375 3.839844.003906 2.152344-.84375 4.214844-2.359375 5.742187l-12.960937 12.914063 11.320312 11.3125 12.984375-12.984375c2.511719-2.511719 6.378906-3.066406 9.496094-1.359375 2.910156 1.5625 5.972656 2.820313 9.136719 3.757813 3.367187 1.027343 5.667968 4.136718 5.664062 7.65625v18.320312h16v-18.320312c-.003906-3.519532 2.296875-6.628907 5.664062-7.65625 3.164063-.9375 6.226563-2.195313 9.136719-3.757813 3.117188-1.707031 6.984375-1.152344 9.496094 1.359375l12.984375 12.984375 11.320312-11.3125-12.960937-12.914063c-1.523437-1.492187-2.386719-3.53125-2.402344-5.664062.003907-1.367188.339844-2.710938.984375-3.917969 1.5625-2.910156 2.824219-5.972656 3.761719-9.136719 1.03125-3.382812 4.160156-5.683593 7.695313-5.664062h18.320312zm-72 40c-17.671875 0-32-14.328125-32-32s14.328125-32 32-32 32 14.328125 32 32-14.328125 32-32 32zm0 0"/></svg>