<svg height="448pt" viewBox="-40 0 448 448" width="448pt" xmlns="http://www.w3.org/2000/svg"><path d="m136 304c0-17.671875-10.746094-32-24-32s-24 14.328125-24 32 10.746094 32 24 32 24-14.328125 24-32zm0 0"/><path d="m0 24h368v24h-368zm0 0"/><path d="m40 0h48v8h-48zm0 0"/><path d="m344 144h-123.472656c.578125 1.65625 1.074218 3.199219 1.503906 4.703125l.046875.167969c.5625 1.960937.953125 3.722656 1.273437 5.386718.082032.429688.152344.863282.214844 1.277344.257813 1.476563.402344 2.96875.433594 4.464844 0 22.089844-17.910156 40-40 40s-40-17.910156-40-40c.03125-1.496094.175781-2.988281.433594-4.464844.0625-.414062.132812-.847656.214844-1.277344.3125-1.65625.710937-3.417968 1.273437-5.371093l.054687-.191407c.421876-1.480468.925782-3.039062 1.496094-4.695312h-123.472656v224h320zm-232 208c-22.054688 0-40-21.527344-40-48s17.945312-48 40-48 40 21.527344 40 48-17.945312 48-40 48zm88 0h-16v-96h16zm96 0h-64v-96h16v80h48zm0 0"/><path d="m208 160c-.953125-7.277344-3.167969-14.328125-6.550781-20.839844-5.167969-12-12.257813-25.464844-17.449219-34.902344-5.191406 9.4375-12.273438 22.886719-17.449219 34.894532-2.40625 5.296875-4.363281 10.785156-5.855469 16.40625-.222656.929687-.398437 1.761718-.503906 2.402344-.117187.671874-.179687 1.355468-.191406 2.039062 0 13.253906 10.746094 24 24 24s24-10.746094 24-24zm0 0"/><path d="m344 64h-320v64h130c9.496094-20.878906 22.511719-43.054688 23.105469-44.0625 1.550781-2.285156 4.132812-3.652344 6.894531-3.652344s5.34375 1.367188 6.894531 3.652344c.59375 1.007812 13.601563 23.199219 23.105469 44.0625h130zm0 0"/><path d="m24 384h320v24h-320zm0 0"/><path d="m0 424h368v24h-368zm0 0"/></svg>