<svg height="448pt" viewBox="0 -80 448 448" width="448pt" xmlns="http://www.w3.org/2000/svg"><path d="m240 224c0 8.835938-7.164062 16-16 16s-16-7.164062-16-16 7.164062-16 16-16 16 7.164062 16 16zm0 0"/><path d="m168 224c0 8.835938-7.164062 16-16 16s-16-7.164062-16-16 7.164062-16 16-16 16 7.164062 16 16zm0 0"/><path d="m312 224c0 8.835938-7.164062 16-16 16s-16-7.164062-16-16 7.164062-16 16-16 16 7.164062 16 16zm0 0"/><path d="m104 0h16v56h-16zm0 0"/><path d="m24 0v144h176v-144h-64v64c0 4.417969-3.582031 8-8 8h-32c-4.417969 0-8-3.582031-8-8v-64zm72 120h32c4.417969 0 8 3.582031 8 8s-3.582031 8-8 8h-32c-4.417969 0-8-3.582031-8-8s3.582031-8 8-8zm0 0"/><path d="m96 224c0 8.835938-7.164062 16-16 16s-16-7.164062-16-16 7.164062-16 16-16 16 7.164062 16 16zm0 0"/><path d="m384 224c0 8.835938-7.164062 16-16 16s-16-7.164062-16-16 7.164062-16 16-16 16 7.164062 16 16zm0 0"/><path d="m64 264h320c22.089844 0 40-17.910156 40-40s-17.910156-40-40-40h-320c-22.089844 0-40 17.910156-40 40s17.910156 40 40 40zm304-72c17.671875 0 32 14.328125 32 32s-14.328125 32-32 32-32-14.328125-32-32 14.328125-32 32-32zm-72 0c17.671875 0 32 14.328125 32 32s-14.328125 32-32 32-32-14.328125-32-32 14.328125-32 32-32zm-72 0c17.671875 0 32 14.328125 32 32s-14.328125 32-32 32-32-14.328125-32-32 14.328125-32 32-32zm-72 0c17.671875 0 32 14.328125 32 32s-14.328125 32-32 32-32-14.328125-32-32 14.328125-32 32-32zm-72 0c17.671875 0 32 14.328125 32 32s-14.328125 32-32 32-32-14.328125-32-32 14.328125-32 32-32zm0 0"/><path d="m0 288h448v-128h-448zm64-120h320c30.929688 0 56 25.070312 56 56s-25.070312 56-56 56h-320c-30.929688 0-56-25.070312-56-56s25.070312-56 56-56zm0 0"/><path d="m248 0v144h176v-144h-64v64c0 4.417969-3.582031 8-8 8h-32c-4.417969 0-8-3.582031-8-8v-64zm72 120h32c4.417969 0 8 3.582031 8 8s-3.582031 8-8 8h-32c-4.417969 0-8-3.582031-8-8s3.582031-8 8-8zm0 0"/><path d="m328 0h16v56h-16zm0 0"/></svg>