<svg height="448pt" viewBox="0 0 448 448" width="448pt" xmlns="http://www.w3.org/2000/svg"><path d="m187.113281 303.894531-44 76.320313c50.722657 26.378906 111.117188 26.378906 161.839844 0l-44-76.320313c-23.460937 10.660157-50.382813 10.660157-73.839844 0zm0 0"/><path d="m318.832031 75.816406-44.078125 76.289063c21.054688 14.871093 34.535156 38.222656 36.886719 63.894531h88.113281c-2.519531-57.121094-32.714844-109.433594-80.921875-140.183594zm0 0"/><path d="m173.246094 152.105469-44.078125-76.289063c-48.207031 30.75-78.402344 83.0625-80.921875 140.183594h88.113281c2.351563-25.671875 15.832031-49.023438 36.886719-63.894531zm0 0"/><path d="m224 0c-123.710938 0-224 100.289062-224 224s100.289062 224 224 224 224-100.289062 224-224c-.140625-123.652344-100.347656-223.859375-224-224zm0 184c22.089844 0 40 17.910156 40 40s-17.910156 40-40 40-40-17.910156-40-40c.027344-22.082031 17.917969-39.972656 40-40zm-191.871094 47.960938v-7.960938c-.140625-68.589844 36.460938-132 95.917969-166.191406l6.914063-3.953125 60 103.792969-6.9375 4c-22.285157 12.855468-36.019532 36.625-36.023438 62.351562v8zm287.824219 158.230468c-59.339844 34.410156-132.566406 34.410156-191.90625 0l-6.878906-4 59.902343-103.839844 6.929688 4c22.339844 12.625 49.660156 12.625 72 0l6.929688-4 59.902343 103.839844zm-23.953125-158.191406v-8c0-25.722656-13.722656-49.492188-36-62.351562l-6.9375-4 60-103.792969 6.914062 3.953125c59.460938 34.1875 96.0625 97.601562 95.925782 166.191406v7.960938zm0 0"/><path d="m248 224c0 13.253906-10.746094 24-24 24s-24-10.746094-24-24 10.746094-24 24-24 24 10.746094 24 24zm0 0"/></svg>