<svg height="456pt" viewBox="-4 0 456 456.02685" width="456pt" xmlns="http://www.w3.org/2000/svg"><path d="m304.25 412.363281c.039062-.449219.199219-.855469.25-1.296875.226562-1.78125.574219-3.542968 1.039062-5.28125.199219-.757812.34375-1.527344.589844-2.269531.757813-2.382813 1.742188-4.691406 2.9375-6.890625.0625-.125.160156-.230469.230469-.351562 1.160156-2.035157 2.5-3.96875 4-5.765626.519531-.625 1.097656-1.175781 1.65625-1.769531 1.15625-1.25 2.398437-2.421875 3.714844-3.503906.351562-.296875.628906-.664063.988281-.945313l-16.230469-9.359374-211.414062-121.949219c-.210938.527343-.511719 1-.746094 1.519531-.648437 1.488281-1.351563 2.925781-2.121094 4.34375-.496093.902344-1 1.800781-1.542969 2.671875-.800781 1.367187-1.757812 2.671875-2.71875 3.953125-.609374.796875-1.207031 1.597656-1.863281 2.398438-1.050781 1.246093-2.175781 2.398437-3.328125 3.566406-.695312.695312-1.371094 1.425781-2.105468 2.089844-1.289063 1.167968-2.671876 2.214843-4.070313 3.253906-.601563.449218-1.121094.96875-1.738281 1.386718l205.945312 118.886719zm0 0"/><path d="m360.082031 160.003906c-2.617187-.015625-5.226562-.28125-7.792969-.800781-.230468-.046875-.460937 0-.695312-.074219l8.488281 32.875 8.488281-32.882812c-.230468.050781-.472656 0-.695312.074218-2.566406.519532-5.175781.792969-7.792969.808594zm0 0"/><path d="m345.105469 392.105469c-.496094 0-.992188-.0625-1.449219-.054688-1.699219.019531-3.394531.222657-5.054688.609375-10.855468 2.515625-18.535156 12.199219-18.519531 23.34375-.015625 2.851563.527344 5.683594 1.601563 8.328125 4.070312 11.113281 15.660156 17.578125 27.253906 15.199219.105469 0 .199219-.0625.304688-.089844 6.003906-1.316406 11.277343-4.882812 14.734374-9.964844.089844-.128906.152344-.273437.234376-.402343.742187-1.125 1.386718-2.308594 1.925781-3.542969.167969-.402344.273437-.800781.425781-1.230469.390625-1.015625.714844-2.054687.96875-3.113281.136719-.625.175781-1.289062.261719-1.9375.148437-.90625.242187-1.820312.28125-2.734375.015625-1.089844-.0625-2.179687-.230469-3.257813v-.199218c-.65625-3.3125-1.96875-6.457032-3.859375-9.253906-3.550781-6.101563-9.632813-10.300782-16.597656-11.457032-.792969-.121094-1.527344-.207031-2.28125-.242187zm14.976562 23.898437c0 8.835938-7.164062 16-16 16-8.835937 0-16-7.164062-16-16 0-8.835937 7.164063-16 16-16 8.835938 0 16 7.164063 16 16zm0 0"/><path d="m48.082031 232.003906c0 4.417969-3.582031 8-8 8s-8-3.582031-8-8c0-4.417968 3.582031-8 8-8s8 3.582032 8 8zm0 0"/><path d="m40.082031 272.003906c4.175781.015625 8.332031-.632812 12.304688-1.921875 1.730469-.5625 3.417969-1.242187 5.054687-2.03125 11.453125-5.441406 19.589844-16.054687 21.871094-28.527343.5-2.476563.757812-4.996094.769531-7.519532.03125-1.9375-.132812-3.871094-.488281-5.777344-3.082031-21.125-22.210938-36.105468-43.460938-34.035156-21.25 2.070313-37.125 20.464844-36.070312 41.789063s18.671875 38.058593 40.019531 38.023437zm0-64c13.253907 0 24 10.742188 24 24 0 13.253906-10.746093 24-24 24-13.253906 0-24-10.746094-24-24 0-13.257812 10.746094-24 24-24zm0 0"/><path d="m232.339844 20.804688c0 .238281-.050782.429687-.082032.652343-.121093.84375-.179687 1.695313-.175781 2.546875 0 13.253906 10.746094 24 24 24 12.441407-.105468 22.769531-9.640625 23.863281-22.03125.019532-.269531.054688-.539062.105469-.800781.046875-.386719.058594-.78125.03125-1.167969 0-13.257812-10.746093-23.99999975-24-23.99999975-.949219-.01953125-1.894531.04687495-2.832031.19140575-10.871094 1.261719-19.492188 9.753907-20.910156 20.609376zm23.742187-12.800782c8.835938 0 16 7.164063 16 16 0 8.835938-7.164062 16-16 16-8.835937 0-16-7.164062-16-16 0-8.835937 7.164063-16 16-16zm0 0"/><path d="m360.082031 96.003906c-2.378906-.003906-4.75.339844-7.03125 1.015625-8.183593 2.566407-14.40625 9.253907-16.382812 17.597657-.375 1.773437-.570313 3.574218-.585938 5.386718.011719 7.140625 3.179688 13.910156 8.65625 18.496094 2.140625 1.753906 4.578125 3.109375 7.199219 4 8.015625 2.746094 16.875 1.242188 23.527344-4 7.8125-6.460938 10.726562-17.132812 7.273437-26.667969-3.449219-9.53125-12.519531-15.867187-22.65625-15.828125zm0 40c-8.835937 0-16-7.164062-16-16 0-8.835937 7.164063-16 16-16 8.835938 0 16 7.164063 16 16 0 8.835938-7.164062 16-16 16zm0 0"/><path d="m8.082031 456.003906h336c-1.984375-.007812-3.964843-.160156-5.929687-.464844-.628906-.097656-1.238282-.289062-1.863282-.417968-1.296874-.234375-2.582031-.535156-3.847656-.902344-.710937-.222656-1.390625-.527344-2.09375-.800781-1.121094-.414063-2.242187-.800781-3.3125-1.328125-.722656-.34375-1.394531-.757813-2.082031-1.136719-1.007813-.550781-2-1.101563-2.949219-1.734375-.683594-.457031-1.3125-.960938-1.960937-1.449219-.890625-.679687-1.777344-1.359375-2.609375-2.109375-.617188-.554687-1.183594-1.144531-1.765625-1.738281-.800781-.800781-1.546875-1.597656-2.257813-2.453125-.535156-.640625-1.03125-1.320312-1.527344-2-.65625-.898438-1.28125-1.808594-1.863281-2.761719-.449219-.726562-.855469-1.480469-1.257812-2.25-.261719-.511719-.597657-.980469-.847657-1.511719l-98.6875-56.941406h-201.144531c-4.417969 0-7.9999998 3.582032-7.9999998 8v64c0 4.417969 3.5820308 8 7.9999998 8zm0 0"/><path d="m448.082031 448.003906v-64c0-4.417968-3.582031-8-8-8h-94.167969c1.9375.113282 3.863282.378906 5.761719.800782.4375.085937.855469.207031 1.285157.300781 1.492187.363281 2.960937.820312 4.394531 1.371093 14.121093 5 24.242187 17.503907 26.199219 32.359376.175781 1.085937.261718 2.175781.335937 3.269531 0 .65625.191406 1.265625.191406 1.929687 0 .246094-.070312.472656-.070312.71875 0 .25.054687.59375.039062.890625-.046875 1.238281-.335937 2.398438-.496093 3.597657-.160157 1.199218-.222657 2.320312-.472657 3.441406-.402343 1.683594-.917969 3.335937-1.542969 4.953125-.273437.75-.464843 1.542969-.800781 2.277343-.871093 1.976563-1.90625 3.878907-3.089843 5.6875-.183594.289063-.316407.601563-.511719.890626-5.71875 8.441406-14.464844 14.367187-24.429688 16.542968-.21875.046875-.410156.144532-.625.191406-2.632812.53125-5.3125.796876-8 .800782h96c2.125 0 4.164063-.847656 5.664063-2.351563 1.503906-1.507812 2.34375-3.546875 2.335937-5.671875zm0 0"/><path d="m227.28125 51.675781c-.800781-.800781-1.414062-1.714843-2.117188-2.578125-.992187-1.164062-1.917968-2.386718-2.769531-3.65625-.632812-.984375-1.128906-2.039062-1.671875-3.078125-.714844-1.316406-1.355468-2.671875-1.914062-4.0625-.152344-.394531-.390625-.730469-.535156-1.128906l-147.71875 147.832031c.375.246094.695312.550782 1.0625.800782 1.3125.894531 2.554687 1.855468 3.777343 2.855468.800781.648438 1.601563 1.277344 2.359375 1.964844 1.214844 1.113281 2.328125 2.296875 3.441406 3.503906.640626.699219 1.320313 1.355469 1.925782 2.089844 1.183594 1.457031 2.292968 2.972656 3.320312 4.542969.394532.578125.839844 1.113281 1.207032 1.714843 1.375 2.207032 2.59375 4.511719 3.640624 6.894532v.070312l148.792969-148.773437c-.695312-.304688-1.289062-.800781-1.960937-1.113281-1.660156-.796876-3.265625-1.707032-4.800782-2.726563-.796874-.585937-1.597656-1.304687-2.398437-1.953125-1.273437-.992188-2.492187-2.0625-3.640625-3.199219zm0 0"/><path d="m291.699219 42.113281c-1.078125 2.113281-2.34375 4.121094-3.785157 6-.328124.425781-.679687.800781-1.015624 1.25-1.394532 1.699219-2.929688 3.28125-4.585938 4.726563-.140625.128906-.253906.296875-.398438.417968l44.28125 44.296876c.175782-.296876.429688-.53125.621094-.800782 1.234375-1.902344 2.628906-3.695312 4.160156-5.359375.242188-.257812.511719-.472656.761719-.722656 1.472657-1.488281 3.0625-2.855469 4.75-4.09375.265625-.191406.472657-.449219.746094-.640625l-45.351563-45.351562c-.054687.09375-.136718.183593-.183593.277343zm0 0"/></svg>