<svg height="448pt" viewBox="0 -2 448 448" width="448pt" xmlns="http://www.w3.org/2000/svg"><path d="m0 411.527344h448v32h-448zm0 0"/><path d="m114.769531 313.332031c-.289062.242188-.601562.457031-.898437.699219-1.851563 1.476562-3.753906 2.863281-5.710938 4.167969-.558594.375-1.121094.75-1.695312 1.117187-2.238282 1.425782-4.546875 2.734375-6.921875 3.921875-.269531.136719-.550781.246094-.800781.375-2.175782 1.046875-4.398438 1.976563-6.664063 2.824219-.621094.230469-1.246094.472656-1.878906.6875-2.53125.886719-5.109375 1.648438-7.71875 2.273438l-.65625.128906c-1.703125.382812-3.425781.742187-5.160157 1.015625l37.480469 64.984375h55.457031l-49.953124-86.5625c-1.570313 1.527344-3.199219 2.984375-4.878907 4.367187zm0 0"/><path d="m63.398438 283.527344h.601562c17.636719-.085938 31.917969-14.363282 32-32-.015625-1.722656-.15625-3.4375-.425781-5.136719-2.515625-15.484375-15.886719-26.859375-31.574219-26.863281-17.671875-.167969-32.132812 14.023437-32.300781 31.699218-.164063 17.671876 14.027343 32.132813 31.699219 32.300782zm0 0"/><path d="m63.390625 315.527344c17.066406.121094 33.480469-6.566406 45.605469-18.574219 12.125-12.011719 18.964844-28.359375 19.003906-45.425781-.011719-3.34375-.28125-6.675782-.800781-9.976563-5.257813-32.945312-34.941407-56.328125-68.203125-53.71875-33.261719 2.609375-58.9375002 30.332031-58.996094 63.695313.0859375 35.074218 28.320312 63.578125 63.390625 64zm.609375-112c23.589844.003906 43.679688 17.148437 47.390625 40.445312.398437 2.5.601563 5.023438.609375 7.554688-.085938 26.472656-21.527344 47.910156-48 48h-.703125c-26.511719-.195313-47.84375-21.84375-47.648437-48.355469.195312-26.507813 21.84375-47.839844 48.351562-47.644531zm0 0"/><path d="m335.199219 52.164062c1.25.195313 2.457031.472657 3.679687.800782 1.464844.34375 2.914063.703125 4.328125 1.175781 1.199219.402344 2.359375.882813 3.527344 1.378906.800781.335938 1.601563.550781 2.402344.925781l8.269531-30.945312c.539062-2.054688 1.875-3.8125 3.714844-4.882812 1.835937-1.070313 4.023437-1.363282 6.078125-.820313l31 8.328125 4.160156-15.421875-46.398437-12.433594c-4.261719-1.136719-8.636719 1.390625-9.785157 5.648438l-12.351562 45.953125c.449219.0625.902343.222656 1.375.292968zm0 0"/><path d="m328.921875 67.605469c-1.4375-.074219-2.878906-.027344-4.304687.144531-13.195313 1.441406-24.140626 10.859375-27.539063 23.6875l-.980469 6.105469c0 .183593-.042968.359375-.050781.519531-.046875.472656-.046875.96875-.046875 1.464844.015625 13.335937 8.304688 25.265625 20.800781 29.933594 9.816407 3.707031 20.832031 2.347656 29.457031-3.628907 8.625-5.976562 13.761719-15.8125 13.742188-26.304687.027344-1.1875-.058594-2.371094-.257812-3.539063-.882813-8.070312-4.796876-15.5-10.949219-20.796875h-.050781c-1.523438-1.289062-3.167969-2.4375-4.902344-3.425781-.933594-.5-1.890625-.957031-2.871094-1.359375-.800781-.351562-1.527344-.710938-2.320312-1-1.386719-.484375-2.808594-.871094-4.25-1.160156-.390626-.082032-.796876-.167969-1.167969-.230469-1.425781-.234375-2.867188-.371094-4.308594-.410156zm23.078125 31.921875c0 13.253906-10.746094 24-24 24s-24-10.746094-24-24c0-13.257813 10.746094-24 24-24s24 10.742187 24 24zm0 0"/><path d="m418.128906 108.003906c-1.148437 4.261719-5.53125 6.789063-9.792968 5.648438l-32.640626-8.726563c-.054687.511719-.222656 1-.304687 1.511719-.183594 1.265625-.460937 2.496094-.742187 3.734375-.320313 1.410156-.664063 2.792969-1.113282 4.167969-.398437 1.242187-.886718 2.402344-1.382812 3.648437-.320313.753907-.519532 1.554688-.878906 2.296875l48.367187 12.96875c2.050781.550782 4.238281.265625 6.078125-.796875s3.183594-2.8125 3.730469-4.867187l12.367187-46.34375-15.375-4.121094zm0 0"/><path d="m336 99.527344c0 4.417968-3.582031 8-8 8s-8-3.582032-8-8c0-4.417969 3.582031-8 8-8s8 3.582031 8 8zm0 0"/><path d="m290.902344 129.757812c-1.066406-1.28125-2.070313-2.613281-3-4-.550782-.800781-1.03125-1.71875-1.527344-2.59375-.78125-1.351562-1.488281-2.742187-2.128906-4.167968-.429688-.964844-.796875-1.941406-1.183594-2.941406-.535156-1.449219-.984375-2.914063-1.382812-4.417969-.160157-.613281-.421876-1.191407-.558594-1.816407l-156 90.097657c.261718.320312.488281.664062.742187.984375 1.066407 1.296875 2.066407 2.625 3.039063 4 .496094.695312 1.019531 1.367187 1.488281 2.070312 1.160156 1.730469 2.242187 3.503906 3.265625 5.3125.199219.367188.441406.710938.640625 1.089844 1.1875 2.179688 2.273437 4.421875 3.253906 6.726562.28125.664063.511719 1.351563.800781 2.023438.65625 1.648438 1.28125 3.304688 1.824219 5 .097657.3125.238281.609375.335938.921875l157.480469-91.066406c-.351563-.285157-.640626-.648438-.984376-.941407-1.574218-1.3125-3.058593-2.726562-4.449218-4.234374-.558594-.65625-1.101563-1.367188-1.65625-2.046876zm0 0"/></svg>