<svg height="464pt" viewBox="-9 0 464 464" width="464pt" xmlns="http://www.w3.org/2000/svg"><path d="m192.3125 376 6 48h71.871094l-6-48zm0 0"/><path d="m176.3125 256 6 48h71.871094l-6-48zm0 0"/><path d="m312.3125 256 6 48h63.871094l-6-48zm0 0"/><path d="m118.183594 304-6-48h-71.871094l6 48zm0 0"/><path d="m48.3125 376 6 48h79.871094l-6-48zm0 0"/><path d="m328.3125 376 6 48h63.871094l-6-48zm0 0"/><path d="m0 208.167969 22.574219 255.832031h423.648437l-30.078125-248.136719zm25.246094 34.535156c1.519531-1.71875 3.707031-2.703125 6-2.703125h88c4.035156 0 7.4375 3.003906 7.9375 7.007812l8 64c.285156 2.277344-.421875 4.566407-1.941406 6.285157-1.515626 1.722656-3.699219 2.707031-5.996094 2.707031h-88c-4.03125 0-7.433594-3.003906-7.933594-7.007812l-8-64c-.285156-2.277344.417969-4.566407 1.933594-6.289063zm124 194.59375c-1.519532 1.71875-3.703125 2.703125-6 2.703125h-96c-4.03125 0-7.433594-3.003906-7.933594-7.007812l-8-64c-.285156-2.277344.421875-4.566407 1.941406-6.285157 1.515625-1.722656 3.699219-2.707031 5.992188-2.707031h96c4.035156 0 7.4375 3.003906 7.9375 7.007812l8 64c.285156 2.277344-.417969 4.566407-1.9375 6.289063zm18.066406-124.304687-8-64c-.285156-2.277344.421875-4.566407 1.941406-6.285157 1.515625-1.722656 3.699219-2.707031 5.992188-2.707031h88c4.035156 0 7.4375 3.003906 7.9375 7.007812l8 64c.285156 2.277344-.421875 4.566407-1.941406 6.285157-1.515626 1.722656-3.699219 2.707031-5.996094 2.707031h-88c-4.03125 0-7.433594-3.003906-7.933594-7.007812zm117.933594 124.304687c-1.519532 1.71875-3.703125 2.703125-6 2.703125h-88c-4.03125 0-7.433594-3.003906-7.933594-7.007812l-8-64c-.285156-2.277344.421875-4.566407 1.941406-6.285157 1.515625-1.722656 3.699219-2.707031 5.992188-2.707031h88c4.035156 0 7.4375 3.003906 7.9375 7.007812l8 64c.285156 2.277344-.417969 4.566407-1.9375 6.289063zm18.066406-124.304687-8-64c-.285156-2.277344.421875-4.566407 1.941406-6.285157 1.515625-1.722656 3.699219-2.707031 5.992188-2.707031h80c4.035156 0 7.4375 3.003906 7.9375 7.007812l8 64c.285156 2.277344-.421875 4.566407-1.941406 6.285157-1.515626 1.722656-3.699219 2.707031-5.996094 2.707031h-80c-4.03125 0-7.433594-3.003906-7.933594-7.007812zm109.933594 124.304687c-1.519532 1.71875-3.703125 2.703125-6 2.703125h-80c-4.03125 0-7.433594-3.003906-7.933594-7.007812l-8-64c-.285156-2.277344.421875-4.566407 1.941406-6.285157 1.515625-1.722656 3.699219-2.707031 5.992188-2.707031h80c4.035156 0 7.4375 3.003906 7.9375 7.007812l8 64c.285156 2.277344-.417969 4.566407-1.9375 6.289063zm0 0"/><path d="m375.246094 88c0 17.671875-14.324219 32-32 32-17.671875 0-32-14.328125-32-32s14.328125-32 32-32c17.675781 0 32 14.328125 32 32zm0 0"/><path d="m343.246094 32c4.421875 0 8-3.582031 8-8v-16c0-4.417969-3.578125-8-8-8-4.417969 0-8 3.582031-8 8v16c0 4.417969 3.582031 8 8 8zm0 0"/><path d="m304.320312 36.574219c2.222657 3.796875 7.09375 5.082031 10.902344 2.882812s5.125-7.058593 2.953125-10.882812l-8-13.855469c-1.417969-2.496094-4.066406-4.039062-6.9375-4.042969-2.871093-.007812-5.523437 1.523438-6.953125 4.015625-1.429687 2.488282-1.417968 5.550782.035156 8.027344zm0 0"/><path d="m269.96875 54.929688 13.855469 8c3.824219 2.171874 8.683593.851562 10.882812-2.957032s.910157-8.675781-2.882812-10.902344l-13.855469-8c-3.824219-2.171874-8.683594-.851562-10.882812 2.957032-2.199219 3.808594-.910157 8.675781 2.882812 10.902344zm0 0"/><path d="m263.246094 96h16c4.421875 0 8-3.582031 8-8s-3.578125-8-8-8h-16c-4.417969 0-8 3.582031-8 8s3.582031 8 8 8zm0 0"/><path d="m283.824219 113.070312-13.855469 8c-2.496094 1.421876-4.039062 4.066407-4.046875 6.9375-.007813 2.871094 1.527344 5.527344 4.015625 6.957032 2.488281 1.429687 5.554688 1.414062 8.03125-.035156l13.855469-8c3.792969-2.226563 5.082031-7.09375 2.882812-10.902344s-7.058593-5.128906-10.882812-2.957032zm0 0"/><path d="m299.246094 164.207031c3.828125 2.210938 8.722656.898438 10.929687-2.925781l8-13.855469c2.171875-3.824219.855469-8.683593-2.953125-10.882812s-8.679687-.914063-10.902344 2.882812l-8 13.855469c-2.210937 3.824219-.898437 8.71875 2.925782 10.925781zm0 0"/><path d="m335.246094 152v16c0 4.417969 3.582031 8 8 8 4.421875 0 8-3.582031 8-8v-16c0-4.417969-3.578125-8-8-8-4.417969 0-8 3.582031-8 8zm0 0"/><path d="m376.320312 161.28125c2.222657 3.792969 7.09375 5.078125 10.902344 2.882812 3.808594-2.199218 5.125-7.0625 2.953125-10.882812l-8-13.855469c-1.417969-2.496093-4.066406-4.042969-6.9375-4.046875-2.871093-.007812-5.523437 1.523438-6.953125 4.015625-1.429687 2.488281-1.417968 5.554688.035156 8.03125zm0 0"/><path d="m394.671875 126.929688 13.855469 8c2.476562 1.449218 5.542968 1.464843 8.03125.035156 2.488281-1.429688 4.023437-4.085938 4.015625-6.957032-.007813-2.871093-1.550781-5.515624-4.046875-6.9375l-13.855469-8c-2.476563-1.449218-5.542969-1.464843-8.03125-.035156-2.488281 1.429688-4.019531 4.085938-4.015625 6.957032.007812 2.871093 1.550781 5.515624 4.046875 6.9375zm0 0"/><path d="m399.246094 88c0 4.417969 3.582031 8 8 8h16c4.421875 0 8-3.582031 8-8s-3.578125-8-8-8h-16c-4.417969 0-8 3.582031-8 8zm0 0"/><path d="m391.742188 60c2.210937 3.824219 7.105468 5.136719 10.929687 2.929688l13.855469-8c2.496094-1.421876 4.039062-4.066407 4.046875-6.9375.007812-2.871094-1.527344-5.527344-4.015625-6.957032-2.488282-1.429687-5.554688-1.414062-8.03125.035156l-13.855469 8c-3.824219 2.210938-5.136719 7.101563-2.929687 10.929688zm0 0"/><path d="m371.246094 39.503906c3.828125 2.210938 8.722656.898438 10.929687-2.929687l8-13.855469c2.171875-3.820312.855469-8.683594-2.953125-10.882812-3.808594-2.195313-8.679687-.910157-10.902344 2.882812l-8 13.855469c-2.210937 3.828125-.898437 8.71875 2.925782 10.929687zm0 0"/></svg>