<svg height="448pt" viewBox="0 0 448 448" width="448pt" xmlns="http://www.w3.org/2000/svg"><path d="m0 416h448v32h-448zm0 0"/><path d="m16 400h208v-280c.027344-22.082031 17.917969-39.972656 40-40h8v-56c0-13.253906-10.746094-24-24-24h-208c-13.253906 0-24 10.746094-24 24zm48-368h40v16h-40zm0 48h40v16h-40zm0 48h40v16h-40zm0 48h40v16h-40zm0 48h40v16h-40zm0 48h40v16h-40zm0 48h40v16h-40zm0 0"/><path d="m240 120v280h192v-280c0-13.253906-10.746094-24-24-24h-144c-13.253906 0-24 10.746094-24 24zm32 8h40v16h-40zm0 48h40v16h-40zm0 48h40v16h-40zm0 48h40v16h-40zm0 48h40v16h-40zm0 0"/></svg>