<svg height="448pt" viewBox="0 -28 448 448" width="448pt" xmlns="http://www.w3.org/2000/svg"><path d="m264 142.023438v-46.023438h-80v46.023438c26.0625-8.03125 53.9375-8.03125 80 0zm0 0"/><path d="m288 272c0 35.347656-28.652344 64-64 64s-64-28.652344-64-64 28.652344-64 64-64 64 28.652344 64 64zm0 0"/><path d="m440 344c4.417969 0 8-3.582031 8-8v-128c0-4.417969-3.582031-8-8-8s-8 3.582031-8 8v128c0 4.417969 3.582031 8 8 8zm0 0"/><path d="m416 312v-80h-62.023438c8.03125 26.0625 8.03125 53.9375 0 80zm0 0"/><path d="m224 152c-66.273438 0-120 53.726562-120 120s53.726562 120 120 120 120-53.726562 120-120c-.074219-66.242188-53.757812-119.925781-120-120zm-96 128h-8c-4.417969 0-8-3.582031-8-8s3.582031-8 8-8h8c4.417969 0 8 3.582031 8 8s-3.582031 8-8 8zm88-112c0-4.417969 3.582031-8 8-8s8 3.582031 8 8v8c0 4.417969-3.582031 8-8 8s-8-3.582031-8-8zm-71.199219 24.800781c3.125-3.125 8.1875-3.125 11.3125 0l5.65625 5.65625c2.078125 2.007813 2.914063 4.980469 2.179688 7.777344-.730469 2.796875-2.917969 4.984375-5.714844 5.714844-2.796875.734375-5.769531-.101563-7.777344-2.179688l-5.65625-5.65625c-3.125-3.125-3.125-8.1875 0-11.3125zm16.96875 152.726563-5.65625 5.65625c-3.148437 2.957031-8.078125 2.878906-11.132812-.171875-3.054688-3.054688-3.136719-7.980469-.179688-11.132813l5.65625-5.65625c3.136719-3.03125 8.128907-2.988281 11.214844.097656 3.085937 3.085938 3.128906 8.078126.097656 11.214844zm70.230469 30.472656c0 4.417969-3.582031 8-8 8s-8-3.582031-8-8v-8c0-4.417969 3.582031-8 8-8s8 3.582031 8 8zm-8-24c-44.183594 0-80-35.816406-80-80s35.816406-80 80-80 80 35.816406 80 80c-.046875 44.164062-35.835938 79.953125-80 80zm79.199219-.800781c-3.125 3.125-8.1875 3.125-11.3125 0l-5.65625-5.65625c-3.03125-3.136719-2.988281-8.128907.097656-11.214844s8.078125-3.128906 11.214844-.097656l5.65625 5.65625c3.125 3.125 3.125 8.1875 0 11.3125zm0-147.070313-5.65625 5.65625c-3.136719 3.03125-8.128907 2.988282-11.214844-.097656s-3.128906-8.078125-.097656-11.214844l5.65625-5.65625c3.148437-2.957031 8.078125-2.878906 11.132812.171875 3.054688 3.054688 3.136719 7.980469.179688 11.132813zm24.800781 75.871094h-8c-4.417969 0-8-3.582031-8-8s3.582031-8 8-8h8c4.417969 0 8 3.582031 8 8s-3.582031 8-8 8zm0 0"/><path d="m32 232v80h62.023438c-8.03125-26.0625-8.03125-53.9375 0-80zm0 0"/><path d="m352 0h-256c-4.417969 0-8 3.582031-8 8s3.582031 8 8 8h256c4.417969 0 8-3.582031 8-8s-3.582031-8-8-8zm0 0"/><path d="m208 32h32v48h-32zm0 0"/><path d="m8 344c4.417969 0 8-3.582031 8-8v-128c0-4.417969-3.582031-8-8-8s-8 3.582031-8 8v128c0 4.417969 3.582031 8 8 8zm0 0"/></svg>